<svg width="101" height="56" viewBox="0 0 101 56" fill="none" xmlns="http://www.w3.org/2000/svg">
<g opacity="0.3">
<path fill-rule="evenodd" clip-rule="evenodd" d="M89.2126 26.6066C88.7065 26.9538 87.9721 27.1255 86.9671 27.1255H86.5309H85.9705L86.7347 23.0624H87.122H87.4676C88.3018 23.0624 88.9111 23.1946 89.331 23.4628C89.6591 23.6732 90.048 24.0896 90.048 24.8799C90.048 25.832 89.5955 26.3442 89.2126 26.6066ZM29.7595 31.7058H22.0466L22.5451 29.0501H27.3829L27.9327 26.0588H23.1414L23.6045 23.4304H31.3039L29.7595 31.7058ZM93.3675 21.1508C92.2335 20.3855 90.5175 20 88.2676 20H82.3752L80.1849 31.7062H72.4661L72.961 29.0505H77.6113L78.1642 26.0674L73.5167 26.0756L74.0145 23.4312H78.8034L79.4405 20.0004H69.7125L67.6335 31.1057H64.0664L66.1606 20.0004H61.0749L58.9959 31.1057H55.5178L57.6139 20.0004H52.5335L50.3376 31.7067H42.564L43.0537 29.0509H47.7251L48.2752 26.085L43.611 26.0808L44.1064 23.4313H48.9485L49.5825 20.0005H19.2756L17.5504 29.2774L14.1137 20.0001H8.83895L6 35.1391H11.0372L12.7552 25.6073L16.0906 35.1391H34.1452L36.3399 23.4309H39.1649L36.9691 35.1391H84.4761L85.8521 27.7477L88.0825 35.1391H93.1225L90.8134 29.0998L91.3405 28.9876C92.502 28.7428 93.4112 28.2154 94.042 27.4251C94.674 26.6274 94.995 25.6034 94.995 24.3732C94.9954 22.9406 94.4639 21.887 93.3675 21.1508Z" fill="black"/>
</g>
</svg>
