<svg width="58" height="56" viewBox="0 0 58 56" fill="none" xmlns="http://www.w3.org/2000/svg">
<g opacity="0.3">
<path fill-rule="evenodd" clip-rule="evenodd" d="M10.6303 9.08336H13.4655C13.6814 9.08336 13.8472 9.27407 13.8164 9.48693L12.4997 18.5896C12.449 18.94 12.7218 19.2537 13.0769 19.2537H18.0507C18.192 19.2537 18.3002 19.3788 18.2796 19.5179L17.8938 22.1324C17.8738 22.2682 17.7569 22.369 17.6189 22.369H11.995C10.3221 22.369 8.71782 21.0018 8.95386 19.3512L10.2789 9.39023C10.3022 9.21464 10.4524 9.08336 10.6303 9.08336Z" fill="black"/>
<path fill-rule="evenodd" clip-rule="evenodd" d="M20.0844 12.7155L18.7866 21.9988C18.766 22.146 18.8807 22.2775 19.0299 22.2775H21.7735C21.9686 22.2775 22.134 22.1342 22.161 21.9416L23.4461 12.8093C23.4736 12.599 23.3092 12.4124 23.0962 12.4124H20.4339C20.2577 12.4124 20.1087 12.5418 20.0844 12.7155Z" fill="black"/>
<path fill-rule="evenodd" clip-rule="evenodd" d="M25.7435 21.5657C24.897 21.5352 24.501 21.7997 24.0015 22.0966C24.122 21.2596 25.0672 14.7372 25.1534 14.3365C25.2446 13.9093 25.3275 13.1966 25.7045 12.8371C26.1462 12.4151 26.83 12.1737 30.2323 12.1627C33.7052 12.1515 34.378 14.6424 34.1937 16.2608C34.0366 17.6461 33.5199 21.0687 33.374 22.025C33.3518 22.1703 33.2271 22.2774 33.0802 22.2774H30.3975C30.2009 22.2774 30.0499 22.1047 30.0773 21.9109C30.213 20.9546 30.5768 18.4054 30.7002 17.6651C30.8534 16.7495 30.976 15.7419 30.7308 15.3441C30.4856 14.9472 29.75 14.6424 28.3406 14.8867L27.2982 22.232C27.2982 22.232 26.6274 21.5976 25.7435 21.5657Z" fill="black"/>
<path fill-rule="evenodd" clip-rule="evenodd" d="M37.1032 8.55608H40.0791C40.1899 8.55608 40.275 8.6536 40.2599 8.76294L38.4081 22.1312C38.3944 22.2304 38.3092 22.3043 38.2086 22.3043H35.2706C35.1484 22.3043 35.0545 22.1969 35.0713 22.0764L36.9224 8.71324C36.9349 8.62317 37.012 8.55608 37.1032 8.55608Z" fill="black"/>
<path fill-rule="evenodd" clip-rule="evenodd" d="M39.406 16.6106L42.7692 12.6856C42.8752 12.562 43.0302 12.4908 43.1935 12.4908H46.1459C46.3591 12.4908 46.4713 12.7424 46.3288 12.9L42.8899 16.7032L46.0335 23.4408C46.1488 23.688 45.9676 23.9708 45.6942 23.9708H43.0256C42.8862 23.9708 42.7596 23.8899 42.7015 23.7638L39.406 16.6106Z" fill="black"/>
<path fill-rule="evenodd" clip-rule="evenodd" d="M24.0211 9.89861C23.7805 10.9101 22.8665 11.6628 21.9094 11.6628C20.9526 11.6628 20.2187 10.8428 20.4595 9.83152C20.7001 8.81999 21.4924 8 22.6279 8C23.5848 8 24.2617 8.88708 24.0211 9.89861Z" fill="black"/>
<path fill-rule="evenodd" clip-rule="evenodd" d="M27.046 24.6438C26.8054 25.6553 25.8914 26.408 24.9343 26.408C23.9775 26.408 23.2436 25.588 23.4844 24.5767C23.725 23.5652 24.5173 22.7452 25.6528 22.7452C26.6097 22.7452 27.2866 23.6323 27.046 24.6438Z" fill="black"/>
<path fill-rule="evenodd" clip-rule="evenodd" d="M41.4409 36.7316C41.2381 37.7311 40.3145 38.4747 39.3084 38.4741C38.3021 38.4736 37.4898 37.6628 37.6926 36.6635C37.8954 35.6639 38.6877 34.8539 39.8816 34.8545C40.8877 34.8551 41.6437 35.7321 41.4409 36.7316Z" fill="black"/>
<path fill-rule="evenodd" clip-rule="evenodd" d="M16.1107 31.7532H14.309C14.2421 31.7532 14.1962 31.6862 14.2207 31.624L15.7887 27.6579C15.8186 27.5823 15.9304 27.5984 15.9376 27.6792L16.29 31.5576C16.2996 31.6626 16.2167 31.7532 16.1107 31.7532ZM20.4754 36.7339L18.4649 24.7413C18.377 24.217 17.9216 23.8329 17.3882 23.8329H15.3708C14.7555 23.8329 14.197 24.1909 13.9423 24.749L8.52638 36.7488C8.44784 36.9229 8.57625 37.1194 8.76762 37.1184L11.5816 37.102C11.7743 37.101 11.9476 36.9859 12.0228 36.8094L12.9582 34.6164C12.9836 34.5565 13.0424 34.5178 13.1076 34.5178H16.5132C16.5967 34.5178 16.6667 34.581 16.6749 34.6638L16.8781 36.739C16.9015 36.9805 17.1054 37.1648 17.3489 37.1648H20.1091C20.3387 37.1648 20.5133 36.9593 20.4754 36.7339Z" fill="black"/>
<path fill-rule="evenodd" clip-rule="evenodd" d="M19.1326 38.9062L19.7826 40.9071C19.8993 41.2363 19.9875 41.3094 20.2158 41.2614C21.0368 41.0889 23.0205 40.5047 23.991 39.1963C25.2562 37.4905 25.4297 34.4747 25.6531 32.942C25.837 31.6795 26.2397 28.5718 26.376 27.5156C26.4005 27.3255 26.2519 27.1576 26.0595 27.1576H23.5368C23.3139 27.1576 23.1254 27.3216 23.0955 27.5417C22.8921 29.0336 22.1594 34.3985 22.0314 35.1421C21.8827 36.0074 21.8529 37.2538 20.5684 37.9978C19.9274 38.3688 19.5987 38.4397 19.345 38.5577C19.2159 38.6177 19.0701 38.6821 19.1326 38.9062Z" fill="black"/>
<path fill-rule="evenodd" clip-rule="evenodd" d="M33.0156 34.2867C33.0156 34.2867 31.7001 34.7325 31.0687 34.2604C30.437 33.7885 30.3845 32.8183 30.7529 31.4287C31.1213 30.0389 32.0422 29.803 32.4367 29.7767C32.8315 29.7504 33.5735 29.9366 33.5735 29.9366L33.0156 34.2867ZM36.6583 27.5166C35.8076 27.3045 34.3774 26.8386 32.0783 27.0066C29.957 27.1615 27.5617 28.1392 27.1131 32.3123C26.6645 36.4853 28.5788 37.2902 31.3305 37.4095C33.347 37.4968 34.9297 36.944 35.6316 36.6423C35.876 36.5373 36.0462 36.3122 36.0819 36.0494L37.0986 28.015C37.1385 27.6961 36.9785 27.5963 36.6583 27.5166Z" fill="black"/>
<path fill-rule="evenodd" clip-rule="evenodd" d="M38.6207 33.5242L39.361 25.8306C39.3876 25.555 39.6197 25.4426 39.8975 25.4426H42.4514C42.6893 25.4426 42.7901 25.6225 42.7244 25.9172L41.1656 33.6212C41.134 33.7702 41.0023 33.8769 40.8494 33.8769H38.9421C38.7516 33.8769 38.6024 33.7133 38.6207 33.5242Z" fill="black"/>
<path fill-rule="evenodd" clip-rule="evenodd" d="M8.735 47.7109C9.24075 47.9894 9.83148 48.0704 10.3937 47.9377C12.6334 47.4088 17.5899 45.9852 28.0745 44.4749C41.2468 42.5773 50.9724 42.5852 50.9724 42.5852L50.9979 42.5697C50.9979 42.5697 42.3778 41.3894 28.2304 42.7664C14.0827 44.1434 6.18652 46.3074 6.18652 46.3074L8.735 47.7109Z" fill="black"/>
</g>
</svg>
