<svg width="77" height="56" viewBox="0 0 77 56" fill="none" xmlns="http://www.w3.org/2000/svg">
<g opacity="0.3" clip-path="url(#clip0_1662_669)">
<path d="M67.0084 30.3456V28.331V24.3059H60.9687H56.9415V22.2913H67.0084V18.2641H56.9415H50.9019V22.2913V24.3059V28.331H56.9415H60.9687V30.3456H50.9019V34.3728H60.9687H67.0084V30.3456Z" fill="black"/>
<path d="M48.8892 18.2641H44.8621V34.3707H48.8892V18.2641Z" fill="black"/>
<path d="M26.7432 18.2641V22.2913H38.8226V24.3059H30.7682H26.7432V28.331V34.3728H30.7682V28.3923L36.81 34.3728H42.8497L36.5479 28.331H38.8226H42.8497V24.3059V22.2913V18.2641H38.8226H26.7432Z" fill="black"/>
<path d="M14.6616 28.331H18.6782V24.3144H14.6616V28.331ZM15.67 25.3122H17.6825V27.3247H15.67V25.3122Z" fill="black"/>
<path d="M12.649 18.2641H9.12496C8.99178 18.2651 8.8643 18.3182 8.76981 18.4121C8.7228 18.4589 8.68552 18.5146 8.66012 18.5759C8.63473 18.6372 8.62171 18.703 8.62183 18.7693V33.8675C8.62171 33.9339 8.63473 33.9996 8.66012 34.0609C8.68552 34.1223 8.7228 34.1779 8.76981 34.2248C8.86451 34.3181 8.99204 34.3704 9.12496 34.3707H18.6887V30.3541H12.649V18.2641Z" fill="black"/>
<path d="M24.2254 18.2641H14.6616V22.2913H20.7034V28.331H24.72V18.7693C24.7213 18.6363 24.6704 18.5081 24.5784 18.4121C24.484 18.3193 24.3577 18.2663 24.2254 18.2641Z" fill="black"/>
<path d="M24.7305 30.3456H20.7034V39.4062H24.7305V30.3456Z" fill="black"/>
<path d="M14.2409 16H6.68966C6.55639 16.0006 6.42874 16.0537 6.3345 16.148C6.24027 16.2422 6.18708 16.3699 6.18652 16.5031V24.0543H7.19279V17.5009C7.19554 17.3691 7.2497 17.2436 7.3437 17.1512C7.4377 17.0588 7.5641 17.0068 7.69592 17.0063H14.2493L14.2409 16Z" fill="black"/>
<path d="M68.6002 29.0857V35.6391C68.5997 35.7723 68.5465 35.9 68.4523 35.9942C68.358 36.0884 68.2304 36.1416 68.0971 36.1422H61.5437V37.14H69.0949C69.1616 37.1408 69.2278 37.1285 69.2897 37.1036C69.3516 37.0787 69.408 37.0418 69.4555 36.995C69.5031 36.9482 69.5409 36.8925 69.5668 36.831C69.5927 36.7696 69.6062 36.7036 69.6065 36.6369V29.0857H68.6002Z" fill="black"/>
</g>
<defs>
<clipPath id="clip0_1662_669">
<rect width="63.42" height="23.4041" fill="white" transform="translate(6.18652 16)"/>
</clipPath>
</defs>
</svg>
