<svg width="93" height="56" viewBox="0 0 93 56" fill="none" xmlns="http://www.w3.org/2000/svg">
<g opacity="0.3" clip-path="url(#clip0_1662_706)">
<path fill-rule="evenodd" clip-rule="evenodd" d="M37.6387 33.4448C39.1599 33.5543 40.9325 32.3666 41.5569 31.6885C43.7276 29.3279 43.78 25.9143 41.5946 23.4421C40.7816 22.5218 38.8707 21.5047 37.6617 21.6479H33.2847V33.4301L37.6492 33.4448H37.6387ZM35.7529 30.8925V24.1854C36.438 24.1402 37.1254 24.1402 37.8105 24.1854C38.3496 24.2482 38.8638 24.4483 39.3044 24.7666C41.8188 26.4934 40.7711 30.6103 37.7686 30.8862C37.0976 30.9336 36.4242 30.9357 35.7529 30.8925Z" fill="black"/>
<path fill-rule="evenodd" clip-rule="evenodd" d="M76.0642 33.4659H78.5597V30.9262H83.5109L83.5255 33.4532H86.021V29.2668C86.021 28.0033 86.1258 26.4281 85.8115 25.2847C85.526 24.2378 84.9077 23.3136 84.0508 22.6529C83.194 21.9923 82.1456 21.6314 81.0656 21.6254C79.9857 21.6195 78.9334 21.9687 78.0693 22.6199C77.2053 23.2711 76.5769 24.1884 76.28 25.232C75.9448 26.3608 76.0579 27.9801 76.0579 29.2331C76.0579 30.6482 76.0433 32.0718 76.0579 33.4869L76.0642 33.4659ZM78.5618 28.3718C78.5471 27.3189 78.4361 26.1923 78.9285 25.3815C79.1446 25.0083 79.4552 24.6992 79.8288 24.4858C80.2024 24.2723 80.6255 24.1622 81.0552 24.1665C81.4827 24.1696 81.902 24.2842 82.2722 24.4991C82.6424 24.7139 82.9508 25.0216 83.1672 25.3921C83.6533 26.2344 83.5381 27.2873 83.5255 28.3739L78.5618 28.3718Z" fill="black"/>
<path fill-rule="evenodd" clip-rule="evenodd" d="M47.5265 33.4637H50.0137C50.0137 32.9331 49.9466 31.3095 50.0367 30.9241H54.969L54.9858 33.4616H57.4771C57.4645 32.0549 57.4771 30.6503 57.4771 29.2499C57.4771 28.0496 57.5881 26.3313 57.2675 25.2657C56.9803 24.2202 56.361 23.2977 55.504 22.6386C54.647 21.9795 53.5992 21.6198 52.5201 21.6143C51.4409 21.6088 50.3895 21.9578 49.5259 22.6082C48.6624 23.2586 48.0339 24.1748 47.7361 25.2173C47.4029 26.3123 47.5161 27.9864 47.5161 29.2057C47.5161 30.6124 47.4846 32.0549 47.5161 33.4574L47.5265 33.4637ZM50.0158 28.3718C49.999 27.3189 49.8921 26.1775 50.3845 25.3836C50.6006 25.0113 50.91 24.7025 51.2818 24.4878C51.6537 24.2731 52.0751 24.1601 52.5039 24.1601C52.9327 24.1601 53.3541 24.2731 53.726 24.4878C54.0978 24.7025 54.4072 25.0113 54.6233 25.3836C55.1115 26.226 54.9942 27.2957 54.9858 28.3676L50.0158 28.3718Z" fill="black"/>
<path fill-rule="evenodd" clip-rule="evenodd" d="M61.8539 26.2491L61.8183 28.0033C61.8183 29.4774 61.747 32.2297 61.8183 33.428H64.2572C64.3138 32.5856 64.1692 26.6029 64.3222 26.4113C64.3222 25.2489 65.5311 24.1665 66.7506 24.1623C67.3845 24.1584 67.9948 24.4032 68.452 24.8445C68.7621 25.1288 69.2377 25.7774 69.2293 26.4324C69.3425 26.4976 69.2524 32.7499 69.288 33.4427H71.729L71.7101 26.2934C71.7709 25.7332 71.4357 24.8677 71.2198 24.4297C70.8196 23.5951 70.1949 22.8898 69.4164 22.3937C68.6379 21.8976 67.7367 21.6304 66.8149 21.6226C65.8931 21.6147 64.9876 21.8663 64.2008 22.3491C63.414 22.8318 62.7774 23.5263 62.3631 24.3539C62.1535 24.7856 61.8015 25.6742 61.8539 26.2491Z" fill="black"/>
<path d="M17.4424 39C23.7618 39 28.8847 33.8513 28.8847 27.5C28.8847 21.1487 23.7618 16 17.4424 16C11.1229 16 6 21.1487 6 27.5C6 33.8513 11.1229 39 17.4424 39Z" fill="black"/>
<path d="M24.1096 27.5484V30.7851C24.1096 30.9957 24.0195 31.0399 23.8435 30.9367C23.6081 30.7947 23.363 30.6695 23.1102 30.5619C22.3465 30.2561 21.5194 30.1454 20.7027 30.2397C19.8114 30.3559 18.9366 30.5764 18.0962 30.8967C17.258 31.181 16.4367 31.4885 15.5818 31.7264C14.8738 31.9378 14.1369 32.0351 13.3985 32.0149C12.5803 31.983 11.785 31.7338 11.0937 31.2926C11.0068 31.24 10.9356 31.1651 10.8873 31.0754C10.839 30.9858 10.8155 30.8848 10.8192 30.783C10.8192 28.6631 10.8192 26.5432 10.8192 24.4234C10.8192 24.3202 10.8192 24.198 10.9114 24.1454C11.0036 24.0928 11.0979 24.1791 11.1775 24.2317C11.9282 24.7419 12.8173 25.0066 13.7233 24.9898C14.3711 24.9631 15.0118 24.8433 15.6258 24.634C16.4975 24.3623 17.3398 24.0022 18.1967 23.6969C18.8638 23.4392 19.5478 23.2281 20.2438 23.0651C20.8412 22.9245 21.461 22.9097 22.0643 23.0217C22.6676 23.1337 23.2413 23.37 23.7492 23.7158C23.8657 23.7875 23.9611 23.8891 24.0255 24.0101C24.0899 24.1312 24.1212 24.2673 24.1159 24.4044C24.1159 25.4573 24.1159 26.5103 24.1159 27.5632L24.1096 27.5484Z" fill="white"/>
</g>
<defs>
<clipPath id="clip0_1662_706">
<rect width="80.04" height="23" fill="white" transform="translate(6 16)"/>
</clipPath>
</defs>
</svg>
