<svg width="69" height="56" viewBox="0 0 69 56" fill="none" xmlns="http://www.w3.org/2000/svg">
<g opacity="0.3" clip-path="url(#clip0_1662_674)">
<path fill-rule="evenodd" clip-rule="evenodd" d="M21.4932 33.6203C19.7805 35.2484 17.4994 36.1427 15.1365 36.1124C12.762 36.1483 10.4675 35.2539 8.74374 33.6203C7.93267 32.8338 7.28782 31.8924 6.84746 30.852C6.40709 29.8115 6.18018 28.6932 6.18018 27.5634C6.18018 26.4336 6.40709 25.3153 6.84746 24.2749C7.28782 23.2345 7.93267 22.2931 8.74374 21.5065C10.4654 19.8633 12.7641 18.963 15.1438 19C17.5066 18.9698 19.7877 19.8641 21.5004 21.4921C22.3124 22.2781 22.958 23.2193 23.399 24.2598C23.8399 25.3004 24.0671 26.4189 24.0671 27.549C24.0671 28.6791 23.8399 29.7976 23.399 30.8381C22.958 31.8787 22.3124 32.8199 21.5004 33.6059M15.1438 21.7883C14.3895 21.781 13.6417 21.9266 12.9453 22.2162C12.2488 22.5059 11.6183 22.9337 11.0918 23.4737C10.5653 24.0138 10.1536 24.6549 9.88163 25.3584C9.60966 26.0619 9.48305 26.8133 9.50943 27.567C9.50943 28.3051 9.6548 29.0358 9.93722 29.7177C10.2196 30.3995 10.6336 31.019 11.1555 31.5409C11.6773 32.0627 12.2968 32.4767 12.9787 32.7591C13.6605 33.0416 14.3913 33.1869 15.1293 33.1869C15.8673 33.1869 16.5981 33.0416 17.2799 32.7591C17.9618 32.4767 18.5813 32.0627 19.1032 31.5409C19.625 31.019 20.039 30.3995 20.3214 29.7177C20.6038 29.0358 20.7492 28.3051 20.7492 27.567C20.7754 26.8157 20.6497 26.0668 20.3795 25.3652C20.1093 24.6636 19.7003 24.0239 19.1768 23.4842C18.6534 22.9446 18.0263 22.5162 17.3333 22.2248C16.6403 21.9334 15.8955 21.7849 15.1438 21.7883ZM42.593 21.0153L35.7235 36.3364L35.3334 36.2641C33.3686 35.9102 32.9713 35.419 32.0539 33.4253L26.9036 22.2072H24.9677V19.484H32.2851V22.2072H30.537L34.6761 31.4894L38.6923 22.2072H36.5253V19.484H42.593V21.0153ZM59.207 33.6203C57.4722 35.2225 55.1974 36.1122 52.8359 36.1122C50.4744 36.1122 48.1996 35.2225 46.4648 33.6203C45.6537 32.8338 45.0089 31.8924 44.5685 30.852C44.1281 29.8115 43.9012 28.6932 43.9012 27.5634C43.9012 26.4336 44.1281 25.3153 44.5685 24.2749C45.0089 23.2345 45.6537 22.2931 46.4648 21.5065C48.1996 19.9044 50.4744 19.0146 52.8359 19.0146C55.1974 19.0146 57.4722 19.9044 59.207 21.5065C60.0208 22.2915 60.668 23.2324 61.1101 24.273C61.5522 25.3137 61.7801 26.4328 61.7801 27.5634C61.7801 28.6941 61.5522 29.8132 61.1101 30.8538C60.668 31.8945 60.0208 32.8354 59.207 33.6203ZM52.8865 21.7883C52.1319 21.781 51.3837 21.9266 50.6869 22.2162C49.9902 22.5058 49.3592 22.9334 48.8321 23.4734C48.305 24.0133 47.8926 24.6543 47.6198 25.3579C47.3471 26.0614 47.2195 26.8129 47.2449 27.567C47.2449 28.3051 47.3903 29.0358 47.6727 29.7177C47.9551 30.3995 48.3691 31.019 48.8909 31.5409C49.4128 32.0627 50.0323 32.4767 50.7141 32.7591C51.396 33.0416 52.1268 33.1869 52.8648 33.1869C53.6028 33.1869 54.3336 33.0416 55.0154 32.7591C55.6972 32.4767 56.3168 32.0627 56.8386 31.5409C57.3605 31.019 57.7744 30.3995 58.0569 29.7177C58.3393 29.0358 58.4846 28.3051 58.4846 27.567C58.5119 26.8161 58.3871 26.0673 58.1177 25.3658C57.8484 24.6642 57.44 24.0244 56.9171 23.4846C56.3942 22.9449 55.7676 22.5164 55.075 22.2249C54.3823 21.9334 53.6379 21.7848 52.8865 21.7883Z" fill="black"/>
</g>
<defs>
<clipPath id="clip0_1662_674">
<rect width="55.6208" height="17.3364" fill="white" transform="translate(6.18652 19)"/>
</clipPath>
</defs>
</svg>
