<svg width="83" height="56" viewBox="0 0 83 56" fill="none" xmlns="http://www.w3.org/2000/svg">
<g opacity="0.3">
<path fill-rule="evenodd" clip-rule="evenodd" d="M22.0088 34.9224C20.1406 35.2846 17.7291 34.6555 16.4233 33.2544C15.8324 32.6253 16.7855 31.6626 17.3765 32.3012C18.2534 33.2448 19.8261 33.6928 21.1033 33.6642C22.7332 33.6261 24.1819 32.1487 23.2574 30.4902C21.9706 28.1932 18.8157 28.8413 17.1858 27.0303C15.8705 25.572 16.4996 23.2845 18.0341 22.2741C19.645 21.2161 22.4186 21.2543 23.7435 22.7698C24.3154 23.4179 23.3622 24.3806 22.7903 23.7229C21.7228 22.4933 19.197 22.6649 18.2343 23.9231C16.8618 25.7245 18.911 26.6967 20.3503 27.1256C22.3233 27.7261 24.506 28.8127 24.8682 31.0717C25.1637 32.8922 23.753 34.5793 22.0088 34.9224ZM9.53207 17.8611H31.7785C33.2654 17.8611 34.4664 19.0715 34.4664 20.5489V36.1233C34.4664 37.6103 33.2559 38.8112 31.7785 38.8112H8.88393C7.39702 38.8112 6.19605 37.6103 6.18652 36.1233V16.8888C6.18652 16.193 6.76794 15.7069 7.45421 15.6212L27.9659 13C28.6713 13 29.2336 13.5719 29.2336 14.2677V16.4409H8.24532C8.24532 17.3654 8.52173 17.8611 9.53207 17.8611Z" fill="black"/>
<path fill-rule="evenodd" clip-rule="evenodd" d="M43.6072 14.22C42.7207 13.2478 40.8716 13.2192 39.7946 13.8959C38.7652 14.544 38.3458 16.0214 39.2227 16.9555C40.3093 18.1088 42.4157 17.699 43.2736 19.1763C43.8931 20.2439 42.9209 21.197 41.8343 21.2161C40.9765 21.2351 39.928 20.9492 39.3466 20.3392C38.9558 19.9293 38.3172 20.5393 38.708 20.9492C39.5754 21.8547 41.1862 22.255 42.4348 22.0167C43.5976 21.7975 44.5412 20.7109 44.3506 19.5481C44.1123 18.0993 42.654 17.394 41.3387 17.0127C40.3855 16.7363 39.013 16.1072 39.928 14.9539C40.5762 14.1437 42.2537 14.0389 42.9686 14.8205C43.3498 15.2494 43.9884 14.6394 43.6072 14.22ZM49.9361 18.6235V21.6641C49.9361 22.2359 49.0306 22.2359 49.0306 21.6641V18.6902C49.002 18.328 48.7923 18.004 48.4777 17.8229C47.8391 17.5465 46.6668 17.6704 45.9805 18.5473V21.6641C45.9805 22.2359 45.075 22.2359 45.075 21.6641V13.8673C45.075 13.2954 45.9805 13.2954 45.9805 13.8673V17.3749C47.0862 16.641 48.4873 16.7172 49.1545 17.1747C49.6596 17.4702 49.9551 18.0326 49.9361 18.6235ZM65.0339 19.0238C65.0434 18.9857 65.053 18.9571 65.0625 18.9285C65.2817 18.2137 66.0157 17.8038 66.7591 17.7847C67.6169 17.7657 68.0935 18.3376 68.246 19.0238H65.0339ZM69.1896 19.4623C69.1706 18.2709 68.5415 17.1843 67.2357 16.946C66.111 16.7363 64.7956 17.3177 64.3191 18.3376C63.8234 19.3956 64.0331 20.8539 65.0149 21.5973C66.0728 22.398 67.7313 22.1502 68.8179 21.5592C69.3231 21.2828 68.8656 20.5298 68.3604 20.8062C67.6741 21.178 66.7686 21.3686 65.9966 21.1112C65.4152 20.9206 65.0911 20.444 64.9958 19.9007H68.7417C68.9895 19.9007 69.1896 19.7101 69.1896 19.4623ZM71.0292 19.0238C71.0387 18.9952 71.0483 18.9571 71.0578 18.9285C71.277 18.2137 72.011 17.8038 72.7544 17.7847C73.6122 17.7657 74.0888 18.3376 74.2413 19.0238H71.0292ZM75.1945 19.4528C75.1754 18.2613 74.5463 17.1747 73.2405 16.9364C72.1158 16.7268 70.8005 17.3082 70.3239 18.328C69.8282 19.386 70.0379 20.8443 71.0197 21.5878C72.0777 22.3884 73.7361 22.1406 74.8227 21.5497C75.3279 21.2733 74.8704 20.5203 74.3652 20.7967C73.679 21.178 72.7735 21.3591 72.0014 21.1017C71.42 20.9111 71.0959 20.4345 71.0006 19.8912H74.7465C74.9848 19.8912 75.1849 19.7006 75.1945 19.4528ZM53.6724 17.8515C52.7288 17.8515 51.9567 18.5949 51.9567 19.5099C51.9567 20.425 52.7193 21.1684 53.6724 21.1684C54.6255 21.1684 55.3785 20.425 55.3785 19.5099C55.3785 18.5949 54.6065 17.8515 53.6724 17.8515ZM53.6724 22.1025C52.195 22.1025 50.9941 20.9397 50.9941 19.5004C50.9941 18.0612 52.195 16.8983 53.6724 16.8983C55.1498 16.8983 56.3507 18.0612 56.3507 19.5004C56.3507 20.9397 55.1498 22.1025 53.6724 22.1025ZM60.3158 21.1684C59.3722 21.1684 58.6097 20.425 58.6097 19.5099C58.6192 18.6807 59.2292 17.9944 60.049 17.8705H60.068C60.1538 17.861 60.2396 17.8515 60.3254 17.8515C60.9926 17.8515 61.6026 18.2327 61.8885 18.8427C61.8885 18.8427 61.8885 18.8427 61.8885 18.8523C61.9838 19.062 62.0315 19.2812 62.0315 19.5099C62.022 20.425 61.2595 21.1684 60.3158 21.1684ZM60.3158 16.9079C59.5533 16.9079 58.8289 17.2224 58.3142 17.7752V17.1557C58.3142 16.5933 57.4087 16.5933 57.4087 17.1557V24.5044C57.4087 25.0668 58.3142 25.0668 58.3142 24.5044V21.2351C58.8289 21.7975 59.5533 22.112 60.3158 22.1025C61.7932 22.1025 62.9942 20.9397 62.9942 19.5004C62.9942 18.0612 61.7932 16.9079 60.3158 16.9079Z" fill="black"/>
<path fill-rule="evenodd" clip-rule="evenodd" d="M55.7885 30.3186C57.5042 30.3186 58.9053 31.7102 58.9053 33.4354C58.9053 35.1606 57.5137 36.5522 55.7885 36.5522C54.0634 36.5522 52.6718 35.1606 52.6718 33.4354C52.6718 31.7102 54.0729 30.3186 55.7885 30.3186ZM59.2771 28.1454H61.3835V38.7158H59.2771V37.5244C57.0181 39.4497 53.6154 39.1733 51.69 36.9144C49.7647 34.6554 50.0411 31.2527 52.3 29.3273C54.3112 27.6212 57.2564 27.6212 59.2675 29.3273V28.1454H59.2771ZM40.9766 32.0247V26.3154H44.2173C46.0379 26.3154 47.5152 27.5926 47.5152 29.1748C47.5152 30.757 46.0379 32.0343 44.2173 32.0343L40.9766 32.0247ZM38.5842 38.8111H40.9766V34.4267H44.2173C47.5724 34.4267 50.2889 32.0724 50.2889 29.1748C50.2889 26.2772 47.5629 23.923 44.2173 23.923H38.5747L38.5842 38.8111ZM67.1024 43.3386H64.243L67.3026 37.553L62.2699 28.0501H65.3772L68.8562 34.6173L72.3352 28.0501H75.1946L67.1024 43.3386Z" fill="black"/>
</g>
</svg>
