<svg width="72" height="56" viewBox="0 0 72 56" fill="none" xmlns="http://www.w3.org/2000/svg">
<g opacity="0.3" clip-path="url(#clip0_1662_624)">
<path d="M8.82378 46.1693C8.42641 46.0022 8.20727 45.8506 7.85988 45.5028C7.56175 45.2042 7.50744 45.1295 7.35235 44.8047C7.25684 44.6046 7.15013 44.331 7.11522 44.1966C7.05411 43.9614 7.05176 43.3492 7.05176 27.6889C7.05176 12.0574 7.05421 11.416 7.11492 11.1812C7.22443 10.7576 7.49182 10.2578 7.76914 9.95837C8.14699 9.55033 8.47335 9.33499 8.9964 9.1486L9.26652 9.05234L35.463 9.04341C61.5224 9.03453 61.6609 9.03485 61.9363 9.10399C62.9057 9.34739 63.6614 10.0753 63.9662 11.0591L64.0473 11.3208V27.6889V44.057L63.9662 44.3173C63.6975 45.1803 63.1304 45.8107 62.3047 46.1642L62.0502 46.2732L35.5545 46.2707L9.05889 46.2682L8.82378 46.1693ZM22.811 37.272C22.8441 37.2508 23.0095 36.3772 23.3379 34.4892C23.6011 32.9757 23.8249 31.702 23.8353 31.6588L23.8541 31.5803H25.7741H27.694L27.694 31.6588C27.694 31.702 27.5355 32.6325 27.3418 33.7266C27.0515 35.366 26.9895 35.7773 26.9891 36.0649C26.9885 36.5073 27.065 36.7039 27.334 36.9519C27.6301 37.2248 27.6814 37.2341 28.8934 37.2341H29.9421L29.9603 37.1555C30.0353 36.8332 31.1546 30.2997 31.1546 30.1844C31.1546 29.6544 30.7591 28.9526 30.289 28.6484C29.9151 28.4064 29.8955 28.4044 27.9214 28.4044C26.2584 28.4044 26.1309 28.4087 25.876 28.4745C25.3127 28.6198 24.7188 28.995 24.3956 29.4097C24.2987 29.534 24.2145 29.621 24.2085 29.6028C24.2026 29.5847 24.2507 29.288 24.3155 28.9435C24.3803 28.599 24.4264 28.3053 24.4179 28.291C24.4094 28.2766 23.6026 28.2648 22.625 28.2648H20.8476L20.8279 28.3608C20.817 28.4135 20.4648 30.4041 20.0452 32.7843C19.6256 35.1645 19.2743 37.1382 19.2647 37.1704C19.2546 37.2042 19.2735 37.2443 19.3093 37.2653C19.3867 37.3107 22.7403 37.3171 22.811 37.272ZM18.9561 30.1796C19.6603 29.1804 20.2415 28.3409 20.2477 28.3139C20.2571 28.2725 20.0996 28.2648 19.2528 28.2648C18.6994 28.2648 18.2467 28.2687 18.2467 28.2735C18.2467 28.2783 18.1065 29.0832 17.9352 30.0621C17.6248 31.8366 17.6006 32.0003 17.6497 31.9977C17.664 31.9969 18.2519 31.1788 18.9561 30.1796Z" fill="white"/>
<path d="M8.82378 46.1693C8.42641 46.0022 8.20727 45.8506 7.85988 45.5028C7.56175 45.2042 7.50744 45.1295 7.35235 44.8047C7.25684 44.6046 7.15013 44.331 7.11522 44.1966C7.05411 43.9614 7.05176 43.3492 7.05176 27.6889C7.05176 12.0574 7.05421 11.416 7.11492 11.1812C7.22443 10.7576 7.49182 10.2578 7.76914 9.95837C8.14699 9.55033 8.47335 9.33499 8.9964 9.1486L9.26652 9.05234L35.463 9.04341C61.5224 9.03453 61.6609 9.03485 61.9363 9.10399C62.9057 9.34739 63.6614 10.0753 63.9662 11.0591L64.0473 11.3208V27.6889V44.057L63.9662 44.3173C63.6975 45.1803 63.1304 45.8107 62.3047 46.1642L62.0502 46.2732L35.5545 46.2707L9.05889 46.2682L8.82378 46.1693ZM41.1603 40.2114C41.6848 40.0611 42.1852 39.7535 42.5766 39.3407C42.9508 38.946 43.1975 38.515 43.3128 38.0542C43.4103 37.6649 44.1074 33.5771 44.0859 33.5208C44.0668 33.4705 43.8911 33.4649 42.3548 33.4649C41.0291 33.4649 40.637 33.4747 40.6092 33.5085C40.5896 33.5325 40.4416 34.3117 40.2803 35.2402C40.0858 36.3604 39.9712 36.9384 39.9398 36.9585C39.9138 36.9751 38.7304 36.9889 37.31 36.9892C35.2853 36.9897 34.7198 36.9803 34.6922 36.9461C34.6675 36.9156 34.795 36.1141 35.1166 34.2794C35.3694 32.8366 35.5867 31.6391 35.5995 31.6183C35.6161 31.5912 36.8584 31.5803 39.9126 31.5803H44.2024L44.2343 31.5018C44.2631 31.4308 44.7892 28.3996 44.7892 28.3047C44.7892 28.2749 43.5256 28.2648 39.8045 28.2648C34.3897 28.2648 34.5996 28.2577 34.0956 28.4569C33.5829 28.6595 33.0254 29.1045 32.6894 29.5791C32.5258 29.8101 32.3263 30.2191 32.266 30.4471C32.2456 30.5244 31.938 32.2362 31.5827 34.2512C30.8514 38.3974 30.8518 38.3939 31.0293 38.9207C31.2748 39.6496 31.8436 40.1403 32.5914 40.2685C32.6862 40.2847 34.5935 40.2956 36.8299 40.2926C40.8898 40.2871 40.8965 40.287 41.1603 40.2114ZM55.4762 40.2077C56.3128 39.9482 57.033 39.3414 57.4109 38.5777C57.4678 38.4625 57.5398 38.2898 57.5707 38.1938C57.6016 38.0978 57.9182 36.3624 58.2742 34.3374C58.9947 30.2381 59.0021 30.1784 58.8476 29.6782C58.6362 28.994 58.1311 28.5135 57.4343 28.3337C57.1756 28.267 57.037 28.2648 53.1395 28.2648C48.723 28.2648 48.8729 28.2582 48.3536 28.4742C48.2173 28.5309 48.0099 28.636 47.8927 28.7078C47.6264 28.8709 47.182 29.2959 46.9815 29.5791C46.8181 29.8099 46.6184 30.2193 46.5585 30.446C46.5143 30.6136 45.2918 37.5867 45.237 37.9837C45.1713 38.4603 45.2841 38.9865 45.5386 39.3901C45.8281 39.8493 46.3894 40.2033 46.9521 40.2815C47.0092 40.2894 48.8935 40.2937 51.1394 40.2911L55.2228 40.2863L55.4762 40.2077ZM48.9859 36.9461C48.9632 36.9167 49.1009 36.0545 49.4087 34.2986C49.6597 32.8665 49.875 31.6689 49.887 31.6373C49.9071 31.5845 50.1246 31.5806 52.5485 31.5888L55.1882 31.5977L55.1783 31.7268C55.1513 32.078 54.2717 36.9331 54.2302 36.9595C54.2052 36.9756 53.0225 36.9889 51.6021 36.9892C49.5766 36.9897 49.0123 36.9804 48.9859 36.9461ZM22.811 37.272C22.8441 37.2508 23.0095 36.3772 23.3379 34.4892C23.6011 32.9757 23.8249 31.702 23.8353 31.6588L23.8541 31.5803H25.7741H27.694L27.694 31.6588C27.694 31.702 27.5355 32.6325 27.3418 33.7266C27.0515 35.366 26.9895 35.7773 26.9891 36.0649C26.9885 36.5073 27.065 36.7039 27.334 36.9519C27.6301 37.2248 27.6814 37.2341 28.8934 37.2341H29.9421L29.9603 37.1555C30.0353 36.8332 31.1546 30.2997 31.1546 30.1844C31.1546 29.6544 30.7591 28.9526 30.289 28.6484C29.9151 28.4064 29.8955 28.4044 27.9214 28.4044C26.2584 28.4044 26.1309 28.4087 25.876 28.4745C25.3127 28.6198 24.7188 28.995 24.3956 29.4097C24.2987 29.534 24.2145 29.621 24.2085 29.6028C24.2026 29.5847 24.2507 29.288 24.3155 28.9435C24.3803 28.599 24.4264 28.3053 24.4179 28.291C24.4094 28.2766 23.6026 28.2648 22.625 28.2648H20.8476L20.8279 28.3608C20.817 28.4135 20.4648 30.4041 20.0452 32.7843C19.6256 35.1645 19.2743 37.1382 19.2647 37.1704C19.2546 37.2042 19.2735 37.2443 19.3093 37.2653C19.3867 37.3107 22.7403 37.3171 22.811 37.272ZM18.9561 30.1796C19.6603 29.1804 20.2415 28.3409 20.2477 28.3139C20.2571 28.2725 20.0996 28.2648 19.2528 28.2648C18.6994 28.2648 18.2467 28.2687 18.2467 28.2735C18.2467 28.2783 18.1065 29.0832 17.9352 30.0621C17.6248 31.8366 17.6006 32.0003 17.6497 31.9977C17.664 31.9969 18.2519 31.1788 18.9561 30.1796ZM38.9693 26.7809C38.9833 26.768 40.5327 17.9116 40.5327 17.8443C40.5327 17.7686 37.4254 17.7702 37.3966 17.846C37.3859 17.8741 37.1473 19.2106 36.8664 20.8159C36.5366 22.7007 36.3396 23.7447 36.3104 23.7629C36.2502 23.8005 32.5 23.8041 32.4408 23.7667C32.4036 23.7432 32.4925 23.1778 32.8993 20.85C33.1769 19.2618 33.404 17.9247 33.404 17.8786V17.7948H31.849C30.3984 17.7948 30.2929 17.7989 30.2753 17.8559C30.2649 17.8895 29.9742 19.5346 29.6291 21.5116C29.0739 24.693 29.0041 25.1351 29.022 25.3561C29.0732 25.9888 29.4537 26.4774 30.0367 26.659C30.2506 26.7256 30.3554 26.7291 32.0839 26.7286C34.0697 26.7279 34.1503 26.7215 34.61 26.5267C34.9701 26.3741 35.3178 26.1262 35.7108 25.742L36.0625 25.3982L36.2366 25.7583C36.5489 26.4042 36.7694 26.6209 37.2106 26.7155C37.6143 26.8021 38.8944 26.8497 38.9693 26.7809ZM16.1174 26.6507C16.127 26.6075 16.5009 24.4755 16.9481 21.913C17.3954 19.3505 17.7696 17.2185 17.7797 17.1753L17.7981 17.0968H19.8696C21.4846 17.0968 21.9489 17.0872 21.9767 17.0532C22.0092 17.0134 22.5032 14.2946 22.5032 14.1553C22.5032 14.0989 22.1486 14.0954 16.5011 14.0954C12.9743 14.0954 10.4912 14.1084 10.4798 14.1269C10.4409 14.1904 9.9686 16.9923 9.98816 17.0437C10.0059 17.0904 10.256 17.0968 12.0685 17.0968H14.1286L14.1286 17.1753C14.1286 17.2185 13.7626 19.3483 13.3153 21.9082C12.8681 24.4681 12.5021 26.6001 12.5021 26.6459V26.7292H14.301H16.0998L16.1174 26.6507ZM26.3059 26.6756C27.0318 26.503 27.698 25.8613 27.9167 25.1238C27.948 25.0182 28.1842 23.7225 28.4415 22.2445C28.8726 19.769 28.9085 19.5297 28.8974 19.2082C28.8828 18.7837 28.7921 18.5544 28.5268 18.2716C28.3249 18.0563 28.1021 17.924 27.8139 17.8483C27.5088 17.7681 21.3883 17.7689 21.0497 17.8491C20.3697 18.0103 19.7024 18.6016 19.4691 19.2498C19.3649 19.5393 18.449 24.7248 18.4279 25.1449C18.4101 25.4988 18.4667 25.764 18.6145 26.0183C18.7856 26.3127 19.1889 26.613 19.5183 26.6913C19.5898 26.7083 21.0965 26.7235 22.8665 26.7252C25.6187 26.7277 26.1169 26.7205 26.3059 26.6756ZM21.8485 23.7655C21.8072 23.7389 21.8402 23.4996 22.0562 22.2563L22.3128 20.7787L23.9026 20.7697C24.777 20.7647 25.5033 20.7725 25.5166 20.7871C25.5299 20.8017 25.4258 21.4654 25.2852 22.262C25.0952 23.3389 25.0153 23.721 24.9736 23.7521C24.9052 23.8029 21.9266 23.8157 21.8485 23.7655ZM47.6977 26.7205C48.0027 25.0197 48.1985 23.8435 48.1801 23.8219C48.1669 23.8065 47.1767 23.7946 45.9795 23.7955C44.774 23.7964 43.7816 23.7834 43.7551 23.7663C43.7155 23.7407 43.75 23.4912 43.9567 22.3094C44.0938 21.5251 44.2137 20.856 44.2231 20.8224C44.2392 20.765 44.3801 20.7613 46.5572 20.7613H48.8742L48.9075 20.6828C48.9514 20.5792 49.4234 17.8548 49.4033 17.821C49.3947 17.8066 47.991 17.795 46.2839 17.7953C42.809 17.7959 42.9582 17.786 42.4573 18.0474C41.9623 18.3056 41.4922 18.8569 41.3335 19.3653C41.2608 19.5985 40.3251 25.0418 40.3251 25.232C40.3251 25.9154 40.7585 26.5018 41.3941 26.6786C41.5171 26.7128 42.2559 26.7237 44.6248 26.7261C46.314 26.7278 47.6968 26.7253 47.6977 26.7205ZM52.8305 26.6681C52.84 26.6345 53.0596 25.382 53.3184 23.8848C53.5772 22.3876 53.8036 21.1273 53.8217 21.0841L53.8544 21.0056H55.5985C56.9533 21.0056 57.3499 21.0153 57.3752 21.0492C57.3966 21.0778 57.3271 21.5508 57.1741 22.419C56.7081 25.0626 56.6496 25.4391 56.6731 25.6458C56.7249 26.102 56.9186 26.4027 57.2744 26.5789L57.4722 26.6768L58.414 26.6876L59.3559 26.6984L59.3738 26.6178C59.3836 26.5735 59.6659 24.9667 60.001 23.0472C60.5674 19.8033 60.6092 19.5344 60.5946 19.2334C60.5808 18.9485 60.5638 18.8786 60.4525 18.6516C60.2463 18.2308 59.8799 17.9547 59.4124 17.8678C59.081 17.8063 56.0458 17.8177 55.7464 17.8817C55.2628 17.985 54.7379 18.3273 54.4306 18.7395C54.342 18.8583 54.2556 18.9808 54.2384 19.0118C54.2212 19.0427 54.1984 19.0592 54.1876 19.0484C54.1769 19.0376 54.347 18.0035 54.5656 16.7505C54.7843 15.4975 54.9545 14.4582 54.9439 14.4409C54.9201 14.4021 51.6867 14.3983 51.6629 14.4371C51.6395 14.4754 49.5302 26.5551 49.5302 26.6513V26.7292H51.1716C52.7052 26.7292 52.8142 26.7252 52.8305 26.6681Z" fill="black"/>
</g>
<defs>
<clipPath id="clip0_1662_624">
<rect width="57.0993" height="37.2732" fill="white" transform="translate(7 9)"/>
</clipPath>
</defs>
</svg>
