<svg width="81" height="56" viewBox="0 0 81 56" fill="none" xmlns="http://www.w3.org/2000/svg">
<g opacity="0.3">
<path d="M31.2764 18.8891H42.3578V22.2459H34.9147V25.607H41.7991V28.9639H34.9147V35.4046H31.2764V18.8891Z" fill="black"/>
<path d="M44.9727 18.8891H51.1063C51.9195 18.8851 52.7311 18.9622 53.529 19.1194C54.2404 19.256 54.9185 19.5298 55.5252 19.9255C56.1003 20.3146 56.5658 20.8448 56.8773 21.4654C57.2389 22.2263 57.4115 23.0632 57.3806 23.9051C57.4063 24.7376 57.246 25.5652 56.9114 26.3279C56.6273 26.9514 56.1864 27.4908 55.6318 27.8933C55.0495 28.2982 54.3905 28.5798 53.6954 28.7208C52.8973 28.888 52.0837 28.9695 51.2684 28.9639H48.611V35.4046H44.9727V18.8891ZM48.611 25.8843H51.038C51.3544 25.8851 51.6701 25.8551 51.9807 25.7947C52.2681 25.7363 52.5436 25.6296 52.7954 25.4791C53.0377 25.3291 53.2386 25.1209 53.3797 24.8734C53.5375 24.5758 53.614 24.2418 53.6015 23.9051C53.6196 23.5434 53.516 23.186 53.3072 22.89C53.1149 22.6308 52.8594 22.4252 52.565 22.2928C52.2437 22.1481 51.9007 22.0573 51.5499 22.0241C51.1928 21.9874 50.834 21.9689 50.475 21.9687H48.611V25.8843Z" fill="black"/>
<path d="M63.7702 26.7715L58.3148 18.8891H62.883L66.4062 24.6729L69.7886 18.8891H74.199L68.8545 26.7032L74.826 35.4046H70.2536L66.2228 28.7549L62.3029 35.4046H57.9863L63.7702 26.7715Z" fill="black"/>
<path d="M15.3412 32.3037L13.0379 29.1857C12.6966 28.7208 12.108 28.1108 12.108 27.5009C12.108 26.8909 12.6924 26.2767 13.0379 25.7947L15.3412 22.6725C15.4324 22.5464 15.54 22.4331 15.6611 22.3355V18.7441C15.6611 15.8564 14.454 15.1313 12.9782 17.1275L8.00046 23.8668C7.26255 24.8691 6 26.1829 6 27.5009C6 28.8189 7.27961 30.1326 8.00046 31.135L12.9696 37.8529C14.4454 39.8491 15.6525 39.1326 15.6525 36.2406V32.6449C15.5294 32.5478 15.4216 32.4328 15.3326 32.3037" fill="black"/>
<path d="M25.1003 23.8667L20.1312 17.1445C18.6553 15.144 17.4482 15.8649 17.4482 18.7611V22.3525C17.5689 22.4493 17.6752 22.5628 17.7639 22.6895L20.0714 25.8117C20.4169 26.2767 21.0013 26.8909 21.0013 27.5179C21.0013 28.1449 20.4169 28.7378 20.0714 29.2027L17.7639 32.3207C17.675 32.4498 17.5688 32.5661 17.4482 32.6662V36.2577C17.4482 39.1496 18.6553 39.8662 20.1312 37.87L25.1003 31.152C25.8382 30.1454 27.1008 28.8274 27.1008 27.5136C27.1008 26.1999 25.8212 24.8862 25.1003 23.8838" fill="black"/>
</g>
</svg>
