<svg width="64" height="56" viewBox="0 0 64 56" fill="none" xmlns="http://www.w3.org/2000/svg">
<g opacity="0.3" clip-path="url(#clip0_4723_257)">
<path d="M17.9769 44.7235V42.4818C18.0034 42.1004 17.8644 41.726 17.5955 41.4543C17.3266 41.1825 16.9537 41.0396 16.5721 41.062C16.0691 41.029 15.5881 41.2724 15.3167 41.6971C15.0693 41.2851 14.6163 41.0413 14.136 41.062C13.7179 41.0408 13.3199 41.2427 13.0899 41.5925V41.1516H12.3127V44.7235H13.0974V42.7582C13.0636 42.5109 13.1419 42.2614 13.311 42.0779C13.4802 41.8943 13.7224 41.7958 13.9716 41.8092C14.4872 41.8092 14.7488 42.1455 14.7488 42.7508V44.7385H15.5334V42.7582C15.501 42.5112 15.5798 42.2625 15.7486 42.0793C15.9175 41.8961 16.1588 41.7971 16.4077 41.8092C16.9382 41.8092 17.1923 42.1455 17.1923 42.7508V44.7385L17.9769 44.7235ZM29.5855 41.1516H28.3077V40.0681H27.5231V41.1516H26.8132V41.8615H27.538V43.5055C27.538 44.3349 27.8593 44.8281 28.7785 44.8281C29.1218 44.8293 29.4586 44.7334 29.7499 44.5516L29.5257 43.8866C29.3173 44.0109 29.0808 44.0803 28.8382 44.0883C28.4646 44.0883 28.3226 43.8492 28.3226 43.4905V41.8615H29.593L29.5855 41.1516ZM36.2136 41.062C35.8276 41.0506 35.4664 41.2513 35.2721 41.5851V41.1516H34.5024V44.7235H35.2796V42.7209C35.2796 42.1305 35.5336 41.8018 36.0268 41.8018C36.193 41.7995 36.3581 41.8299 36.5125 41.8914L36.7516 41.1442C36.5742 41.0807 36.3872 41.0478 36.1987 41.047L36.2136 41.062ZM26.193 41.4356C25.7531 41.1741 25.2473 41.0444 24.7358 41.062C23.8316 41.062 23.2413 41.4954 23.2413 42.2053C23.2413 42.7881 23.6747 43.1468 24.4743 43.2589L24.8479 43.3112C25.2738 43.371 25.4756 43.4831 25.4756 43.6848C25.4756 43.9613 25.1916 44.1182 24.6611 44.1182C24.2343 44.1306 23.8158 43.999 23.473 43.7446L23.0993 44.3499C23.552 44.666 24.0942 44.8284 24.6462 44.8132C25.6774 44.8132 26.2752 44.3275 26.2752 43.6475C26.2752 42.9675 25.8044 42.691 25.0273 42.5789L24.6536 42.5266C24.3174 42.4818 24.0484 42.4145 24.0484 42.1754C24.0484 41.9363 24.3024 41.7569 24.7283 41.7569C25.122 41.7615 25.508 41.867 25.8492 42.0633L26.193 41.4356ZM47.0077 41.062C46.6217 41.0506 46.2604 41.2513 46.0662 41.5851V41.1516H45.2965V44.7235H46.0736V42.7209C46.0736 42.1305 46.3277 41.8018 46.8209 41.8018C46.9871 41.7995 47.1521 41.8299 47.3066 41.8914L47.5457 41.1442C47.3682 41.0807 47.1812 41.0478 46.9927 41.047L47.0077 41.062ZM36.9945 42.9301C36.9758 43.4377 37.1719 43.9296 37.5345 44.2851C37.8972 44.6407 38.3929 44.827 38.9 44.7982C39.3666 44.822 39.8252 44.67 40.1853 44.3723L39.8116 43.7446C39.543 43.9495 39.2154 44.0622 38.8776 44.0659C38.2819 44.0177 37.8231 43.5203 37.8231 42.9226C37.8231 42.325 38.2819 41.8275 38.8776 41.7793C39.2154 41.7831 39.543 41.8958 39.8116 42.1007L40.1853 41.473C39.8252 41.1753 39.3666 41.0233 38.9 41.047C38.3929 41.0183 37.8972 41.2046 37.5345 41.5601C37.1719 41.9157 36.9758 42.4076 36.9945 42.9152V42.9301ZM44.2727 42.9301V41.1516H43.4956V41.5851C43.2279 41.2405 42.8107 41.0459 42.3747 41.062C41.343 41.062 40.5066 41.8984 40.5066 42.9301C40.5066 43.9618 41.343 44.7982 42.3747 44.7982C42.8107 44.8143 43.2279 44.6197 43.4956 44.2752V44.7086H44.2727V42.9301ZM41.3809 42.9301C41.4154 42.3438 41.9123 41.8926 42.4993 41.9146C43.0862 41.9366 43.5479 42.4238 43.5384 43.0111C43.5289 43.5984 43.0517 44.0704 42.4644 44.0734C42.1653 44.0772 41.8783 43.9559 41.6725 43.7388C41.4668 43.5217 41.3611 43.2285 41.3809 42.9301ZM32.0029 41.062C30.9711 41.0764 30.1464 41.9245 30.1609 42.9563C30.1753 43.988 31.0234 44.8127 32.0552 44.7982C32.5927 44.8258 33.1213 44.6527 33.5385 44.3125L33.1648 43.7371C32.8698 43.9737 32.5043 44.1052 32.1262 44.1108C31.592 44.1567 31.1183 43.7691 31.0576 43.2365H33.7103C33.7103 43.1393 33.7103 43.0422 33.7103 42.9376C33.7103 41.8167 33.0154 41.0694 32.0141 41.0694L32.0029 41.062ZM32.0029 41.7569C32.2377 41.7519 32.4649 41.8404 32.6345 42.003C32.8041 42.1656 32.9021 42.3889 32.907 42.6237H31.0389C31.067 42.1249 31.4886 41.7399 31.9879 41.7569H32.0029ZM51.4725 42.9376V39.7169H50.7253V41.5851C50.4575 41.2405 50.0404 41.0459 49.6044 41.062C48.5727 41.062 47.7363 41.8984 47.7363 42.9301C47.7363 43.9618 48.5727 44.7982 49.6044 44.7982C50.0404 44.8143 50.4575 44.6197 50.7253 44.2752V44.7086H51.4725V42.9376ZM52.769 44.2042C52.8176 44.2036 52.8658 44.2125 52.911 44.2303C52.9539 44.2478 52.9932 44.2732 53.0268 44.3051C53.0596 44.3373 53.0862 44.3753 53.1053 44.4171C53.1435 44.5053 53.1435 44.6054 53.1053 44.6936C53.0862 44.7355 53.0596 44.7735 53.0268 44.8057C52.9932 44.8376 52.9539 44.8629 52.911 44.8804C52.8663 44.9002 52.8179 44.9104 52.769 44.9103C52.6244 44.9092 52.4935 44.8248 52.4327 44.6936C52.3949 44.6053 52.3949 44.5054 52.4327 44.4171C52.4518 44.3753 52.4784 44.3373 52.5112 44.3051C52.5448 44.2732 52.5841 44.2478 52.627 44.2303C52.6757 44.211 52.7279 44.2021 52.7802 44.2042H52.769ZM52.769 44.8356C52.8063 44.8358 52.8432 44.8282 52.8774 44.8132C52.9095 44.7988 52.9387 44.7785 52.9633 44.7534C53.0602 44.6477 53.0602 44.4855 52.9633 44.3798C52.9387 44.3546 52.9095 44.3343 52.8774 44.32C52.8432 44.3051 52.8063 44.2975 52.769 44.2976C52.7318 44.2978 52.6949 44.3054 52.6607 44.32C52.6271 44.3338 52.5966 44.3541 52.571 44.3798C52.4741 44.4855 52.4741 44.6477 52.571 44.7534C52.5967 44.779 52.6271 44.7993 52.6607 44.8132C52.6984 44.8294 52.7392 44.8371 52.7802 44.8356H52.769ZM52.7914 44.391C52.8263 44.3893 52.8607 44.3999 52.8886 44.4209C52.9118 44.4401 52.9243 44.4693 52.9222 44.4993C52.9233 44.5244 52.9138 44.5488 52.896 44.5666C52.8744 44.5863 52.8468 44.5981 52.8176 44.6002L52.9259 44.7235H52.84L52.7391 44.6002H52.7055V44.7235H52.6345V44.3947L52.7914 44.391ZM52.7092 44.4545V44.5442H52.7914C52.8061 44.5485 52.8216 44.5485 52.8363 44.5442C52.8416 44.5336 52.8416 44.5211 52.8363 44.5105C52.8416 44.5 52.8416 44.4875 52.8363 44.4769C52.8216 44.4726 52.8061 44.4726 52.7914 44.4769L52.7092 44.4545ZM48.5993 42.9376C48.6339 42.3512 49.1308 41.9001 49.7177 41.9221C50.3047 41.9441 50.7664 42.4313 50.7569 43.0186C50.7474 43.6058 50.2702 44.0778 49.6829 44.0809C49.3838 44.0847 49.0967 43.9634 48.891 43.7463C48.6852 43.5292 48.5795 43.236 48.5993 42.9376ZM22.3596 42.9376V41.1516H21.5824V41.5851C21.3147 41.2405 20.8975 41.0459 20.4615 41.062C19.4298 41.062 18.5934 41.8984 18.5934 42.9301C18.5934 43.9618 19.4298 44.7982 20.4615 44.7982C20.8975 44.8143 21.3147 44.6197 21.5824 44.2752V44.7086H22.3596V42.9376ZM19.4677 42.9376C19.5022 42.3512 19.9992 41.9001 20.5861 41.9221C21.173 41.9441 21.6347 42.4313 21.6252 43.0186C21.6157 43.6058 21.1386 44.0778 20.5512 44.0809C20.2508 44.0868 19.9618 43.9664 19.7544 43.7491C19.547 43.5317 19.4403 43.2373 19.4602 42.9376H19.4677Z" fill="black"/>
<path d="M52.2983 33.0224V32.4397H52.4739V32.3191H52.0293V32.4397H52.2198V33.0224H52.2983ZM53.1614 33.0224V32.3191H53.0269L52.87 32.8215L52.713 32.3191H52.5935V33.0224H52.6906V32.495L52.8363 32.9521H52.9372L53.0829 32.495V33.0275L53.1614 33.0224Z" fill="black"/>
<path d="M30.7561 35.4049C30.8622 35.4938 30.9757 35.5827 31.0873 35.6698C28.9336 37.0909 26.348 37.9167 23.5721 37.9167C16.0751 37.9185 10 31.893 10 24.4592C10 17.0273 16.0751 11 23.5703 11C26.348 11 28.9336 11.8276 31.0818 13.2468C30.972 13.3394 30.8622 13.4247 30.7799 13.5191C27.5667 16.2723 25.7277 20.2632 25.7277 24.4592C25.7277 28.6535 27.5593 32.6444 30.7561 35.4049ZM40.3464 11C37.565 11 34.9831 11.8276 32.8348 13.2468C32.9446 13.3394 33.0544 13.4247 33.1368 13.5191C36.35 16.2723 38.189 20.2632 38.189 24.4592C38.189 28.6516 36.3573 32.639 33.1606 35.4049C33.0544 35.4938 32.941 35.5827 32.8293 35.6698C34.9831 37.0909 37.565 37.9167 40.3446 37.9167C47.8415 37.9185 53.9167 31.893 53.9167 24.4592C53.9167 17.0291 47.8415 11 40.3464 11ZM31.9583 13.8857C31.7827 14.0218 31.6125 14.1579 31.446 14.3049C28.5841 16.7714 26.778 20.403 26.778 24.4592C26.778 28.5173 28.5841 32.1471 31.446 34.6136C31.6107 34.7588 31.7845 34.9003 31.9583 35.0346C32.134 34.9003 32.3042 34.7588 32.4707 34.6136C35.3308 32.1471 37.1387 28.5173 37.1387 24.4592C37.1387 20.403 35.3326 16.7714 32.4707 14.3049C32.306 14.1597 32.134 14.0218 31.9583 13.8857Z" fill="black"/>
</g>
<defs>
<clipPath id="clip0_4723_257">
<rect width="43.9167" height="34" fill="white" transform="translate(10 11)"/>
</clipPath>
</defs>
</svg>
