<svg width="109" height="56" viewBox="0 0 109 56" fill="none" xmlns="http://www.w3.org/2000/svg">
<g opacity="0.3">
<path fill-rule="evenodd" clip-rule="evenodd" d="M58.17 28.5456C58.1453 28.7417 58.1206 28.9378 58.0959 29.1339C57.9181 30.5339 57.3278 31.7378 56.3573 32.7505C55.3719 33.7832 54.1741 34.4285 52.7664 34.6643C50.5092 35.0441 47.8988 34.1133 46.5751 32.0332C46.3701 31.7105 46.2367 31.3431 46.0713 30.9956C46.0293 30.9062 46.0441 30.8318 46.1133 30.7499C46.3578 30.4644 46.5899 30.1715 46.827 29.8811C46.8517 29.8513 46.864 29.8141 46.9011 29.747C46.99 29.9928 47.0443 30.1839 47.1233 30.3626C47.8741 32.0605 49.1608 33.0881 50.9784 33.3984C53.6111 33.8502 56.1276 32.0679 56.7277 29.541C56.8216 29.1463 56.8636 28.7343 56.8808 28.3297C56.9006 27.8034 56.8882 27.2722 56.8561 26.7435C56.7969 25.7382 56.4314 24.8421 55.8238 24.0503C54.9348 22.8936 53.7691 22.1886 52.3219 22.0198C50.8846 21.8535 49.6078 22.2904 48.4964 23.2088C47.3382 24.167 46.3355 25.279 45.3724 26.4308C44.9254 26.9669 44.4957 27.518 44.0585 28.0616C44.0314 28.0939 44.0017 28.1237 43.9548 28.1758C43.9499 28.1088 43.9474 28.0715 43.9474 28.0343C43.9474 27.5006 43.9449 26.9645 43.9499 26.4308C43.9499 26.3563 43.9721 26.2694 44.0165 26.2123C44.7846 25.212 45.5823 24.2365 46.4763 23.3478C47.1382 22.69 47.8568 22.0993 48.6422 21.5979C49.3633 21.1362 50.161 20.8755 51.0056 20.7638C54.3593 20.322 57.2809 22.7049 57.9699 25.629C58.0514 25.9691 58.0786 26.3216 58.1305 26.6691C58.1428 26.746 58.1576 26.823 58.1725 26.8999C58.17 27.4535 58.17 27.9995 58.17 28.5456Z" fill="black"/>
<path fill-rule="evenodd" clip-rule="evenodd" d="M91.802 35.6265C91.8983 35.7035 91.9675 35.7556 92.0367 35.8127C93.0467 36.6368 94.1951 37.1605 95.4867 37.3268C96.3462 37.4385 97.2056 37.4212 98.023 37.0786C98.9343 36.6964 99.3912 35.9715 99.4752 35.0084C99.5196 34.4996 99.5023 33.9857 99.5097 33.4744C99.5097 33.4322 99.4999 33.39 99.4949 33.3304C99.4604 33.3478 99.4381 33.3528 99.4258 33.3677C98.8504 34.0255 98.0996 34.368 97.2698 34.5318C95.9189 34.8024 94.61 34.6559 93.3851 34.0031C92.0762 33.3056 91.3205 32.1688 90.9574 30.7489C90.8142 30.1904 90.7524 29.622 90.7524 29.0461C90.7524 26.5192 90.7524 23.9947 90.7524 21.4678C90.7524 21.2469 90.7524 21.2469 90.9772 21.2469C91.844 21.2469 92.7084 21.2519 93.5752 21.2419C93.7506 21.2395 93.7901 21.2941 93.7901 21.4629C93.7851 24.0295 93.7728 26.5961 93.795 29.1603C93.8049 30.3393 94.5013 31.5333 95.9806 31.7915C96.8351 31.9404 97.6501 31.8039 98.354 31.2503C98.8849 30.8308 99.1516 30.2574 99.2381 29.5972C99.2727 29.339 99.2751 29.0759 99.2751 28.8152C99.2776 26.3678 99.2776 23.9228 99.2776 21.4753C99.2776 21.2444 99.2776 21.2444 99.5097 21.2444C100.354 21.2444 101.197 21.2469 102.041 21.2419C102.17 21.2419 102.216 21.2767 102.216 21.4157C102.212 25.9458 102.226 30.4734 102.204 35.0035C102.199 36.2421 101.834 37.3889 100.992 38.3396C100.288 39.1339 99.3887 39.6031 98.3787 39.8711C97.781 40.03 97.171 40.0995 96.5536 40.1293C94.8397 40.2087 93.3085 39.7296 91.965 38.6499C91.844 38.5531 91.7897 38.4488 91.7922 38.2899C91.7996 37.4534 91.7946 36.6169 91.7971 35.7804C91.7897 35.7481 91.7946 35.7084 91.802 35.6265Z" fill="black"/>
<path fill-rule="evenodd" clip-rule="evenodd" d="M66.2042 34.723C66.1227 34.723 66.061 34.723 66.0017 34.723C65.1694 34.723 64.3372 34.718 63.5049 34.7279C63.3271 34.7304 63.29 34.6733 63.29 34.507C63.295 30.9401 63.2925 27.3731 63.2925 23.8036C63.2925 22.0859 63.2925 20.3682 63.2925 18.648C63.2925 18.4246 63.2925 18.4221 63.5148 18.4221C65.5819 18.4221 67.6489 18.3874 69.7135 18.437C71.2052 18.4718 72.5734 18.9285 73.6551 20.0331C74.3342 20.7256 74.7343 21.5721 74.9146 22.5178C75.1443 23.7192 75.1196 24.9181 74.717 26.0823C74.1095 27.8323 72.85 28.8649 71.0941 29.3266C70.5014 29.483 69.8963 29.545 69.2814 29.545C68.3306 29.5426 67.3797 29.545 66.4289 29.545C66.2067 29.545 66.2067 29.5475 66.2067 29.7709C66.2067 31.3471 66.2067 32.9234 66.2067 34.4996C66.2042 34.5691 66.2042 34.6361 66.2042 34.723ZM67.8638 26.822C68.2663 26.822 68.6664 26.8344 69.069 26.8171C69.4122 26.8022 69.7605 26.7848 70.0939 26.7153C71.0101 26.5217 71.6769 26.0078 71.9831 25.0969C72.2301 24.3671 72.2326 23.6224 72.0177 22.8852C71.8103 22.1703 71.3484 21.6788 70.6569 21.4008C70.2248 21.2271 69.7728 21.16 69.3159 21.1526C68.333 21.1402 67.3476 21.1501 66.3623 21.1476C66.2363 21.1476 66.1993 21.1948 66.1993 21.3189C66.2017 23.0937 66.2042 24.866 66.1993 26.6408C66.1993 26.7848 66.2462 26.8245 66.3845 26.8245C66.8809 26.8171 67.3723 26.822 67.8638 26.822Z" fill="black"/>
<path fill-rule="evenodd" clip-rule="evenodd" d="M85.9958 33.3354C85.329 34.0354 84.5263 34.4226 83.615 34.6038C82.9384 34.7379 82.2567 34.7304 81.5751 34.6584C80.7453 34.5716 79.9575 34.3506 79.224 33.946C77.8657 33.1939 77.036 32.0273 76.6186 30.5429C76.4358 29.8901 76.3519 29.2199 76.3494 28.5422C76.3469 27.8894 76.3321 27.2316 76.3864 26.5812C76.5988 24.0568 78.0189 21.9568 80.7873 21.2966C82.2345 20.9515 83.6867 20.9813 85.0968 21.4728C86.9984 22.138 88.1592 23.4983 88.6506 25.4493C88.7939 26.0227 88.8605 26.6085 88.8605 27.2018C88.8581 29.5748 88.8605 31.9453 88.8605 34.3184C88.8605 34.5591 88.8605 34.5591 88.621 34.5591C87.8109 34.5591 87.0034 34.5567 86.1933 34.5616C86.0452 34.5616 85.9834 34.5294 85.9908 34.3631C86.0056 34.0255 85.9958 33.6804 85.9958 33.3354ZM86.0254 27.9465C85.9908 27.4649 86.0007 26.9784 85.9167 26.5068C85.7093 25.36 85.0672 24.5408 83.9682 24.1263C83.2792 23.8657 82.5679 23.8458 81.8493 23.9749C80.5132 24.2132 79.4834 25.2632 79.2833 26.6085C79.1722 27.3607 79.1747 28.1177 79.2537 28.8699C79.3846 30.1234 80.0193 31.0493 81.1627 31.5904C81.874 31.928 82.6272 31.9578 83.4002 31.8535C84.6177 31.6872 85.529 30.9028 85.8599 29.7138C86.018 29.128 86.0007 28.5397 86.0254 27.9465Z" fill="black"/>
<path fill-rule="evenodd" clip-rule="evenodd" d="M19.2956 26.8627C17.5174 26.8627 15.7541 26.8627 13.9686 26.8627C13.9636 26.7882 13.9587 26.7286 13.9587 26.669C13.9587 26.3836 13.9587 26.1006 13.9587 25.8151C13.9587 25.5818 13.9587 25.5818 14.2007 25.5818C15.6381 25.5818 17.0754 25.5818 18.5152 25.5818C19.1375 25.5818 19.7599 25.5868 20.3822 25.5793C20.5304 25.5769 20.5773 25.6215 20.5748 25.7705C20.5699 27.9946 20.5724 30.2186 20.5674 32.4452C20.5674 32.537 20.5255 32.6487 20.4662 32.7182C19.8216 33.4778 19.0042 34.0016 18.1077 34.4037C17.2606 34.7835 16.3715 34.9994 15.4479 35.1012C13.8797 35.2725 12.351 35.1285 10.9062 34.4583C8.37735 33.2792 6.79184 31.3108 6.21642 28.5704C5.87808 26.957 5.91019 25.3361 6.50043 23.7723C7.27589 21.7145 8.68111 20.2103 10.5975 19.1752C11.6126 18.6266 12.6992 18.2989 13.8476 18.1699C14.6897 18.0755 15.5294 18.1103 16.3691 18.1748C17.1939 18.2394 18.0015 18.3933 18.7794 18.6837C18.9375 18.7433 19.0091 18.8152 18.9992 18.9989C18.9819 19.3886 18.9943 19.7808 18.9943 20.1954C18.8362 20.1159 18.7053 20.0439 18.5695 19.9794C17.8632 19.6369 17.1149 19.4507 16.3394 19.3886C15.7764 19.344 15.2133 19.3142 14.6477 19.3216C12.9634 19.344 11.457 19.8975 10.1234 20.9227C8.85892 21.8932 7.97727 23.1393 7.5352 24.6857C7.31047 25.4676 7.27095 26.2694 7.30306 27.0811C7.34504 28.1137 7.56237 29.0967 8.02419 30.0176C9.03674 32.0307 10.6445 33.2792 12.8424 33.7509C13.7315 33.942 14.628 33.9221 15.5245 33.8179C16.5815 33.6962 17.5866 33.4133 18.4905 32.8349C18.7374 32.6761 18.9671 32.4874 19.1869 32.2938C19.2536 32.2367 19.303 32.12 19.303 32.0307C19.3104 30.3701 19.3079 28.707 19.3079 27.0463C19.3129 26.9892 19.303 26.9322 19.2956 26.8627Z" fill="black"/>
<path fill-rule="evenodd" clip-rule="evenodd" d="M38.5957 33.0781C38.5957 33.4927 38.6007 33.8824 38.5908 34.2746C38.5908 34.3193 38.5142 34.3888 38.4624 34.4037C38.0672 34.5129 37.6721 34.6618 37.2696 34.704C35.61 34.8827 34.1084 34.4409 32.7872 33.4207C31.3968 32.3459 30.5398 30.9335 30.3151 29.1835C30.2188 28.4388 30.2509 27.6743 30.2632 26.9197C30.2929 25.4056 30.8436 24.085 31.8265 22.9481C32.8069 21.8162 34.0294 21.079 35.5038 20.8233C37.4992 20.4758 39.2848 20.9748 40.8184 22.3077C42.0038 23.3379 42.7151 24.651 42.9695 26.2048C43.0164 26.5002 43.0411 26.8031 43.0411 27.1034C43.046 29.5732 43.0435 32.0431 43.0435 34.5104C43.0435 34.5824 43.0435 34.6544 43.0435 34.7388C42.6138 34.7388 42.2039 34.7388 41.7717 34.7388C41.7717 34.6519 41.7717 34.5725 41.7717 34.4955C41.7717 32.0257 41.789 29.5559 41.7667 27.0885C41.7445 24.4921 39.88 22.5088 37.5906 22.0769C34.8222 21.5581 32.1599 23.4595 31.6092 26.18C31.5548 26.4506 31.5203 26.7311 31.5178 27.0066C31.5079 27.7339 31.4511 28.4637 31.5968 29.1835C31.9771 31.0799 33.0786 32.393 34.8469 33.1253C36.0224 33.6118 37.2152 33.5746 38.4056 33.1427C38.4624 33.1228 38.5192 33.103 38.5957 33.0781Z" fill="black"/>
<path fill-rule="evenodd" clip-rule="evenodd" d="M18.3174 27.8555C18.3174 27.925 18.3174 27.9821 18.3174 28.0367C18.3174 29.2208 18.315 30.4023 18.3199 31.5863C18.3199 31.7154 18.2804 31.7973 18.1816 31.8743C17.6309 32.3087 16.9912 32.542 16.3195 32.6934C15.5613 32.8647 14.7859 32.9491 14.0129 32.897C11.7383 32.7455 10.054 31.6385 8.96741 29.6328C8.49077 28.7541 8.29814 27.8009 8.28085 26.8006C8.26357 25.8325 8.38705 24.8967 8.80935 24.018C9.58482 22.4045 10.8394 21.3272 12.494 20.7067C13.4893 20.3319 14.5241 20.2475 15.5786 20.3145C16.4751 20.3716 17.3518 20.5081 18.189 20.8382C18.4261 20.9301 18.6558 21.0418 18.883 21.1535C18.9324 21.1783 18.9867 21.2503 18.9867 21.2999C18.9941 21.7542 18.9916 22.2084 18.9916 22.6999C18.9225 22.6528 18.8731 22.623 18.8262 22.5882C18.1273 22.057 17.3296 21.7716 16.4677 21.6772C15.8898 21.6152 15.3045 21.5556 14.7266 21.578C12.6891 21.6648 11.0962 22.551 10.0689 24.3556C9.71324 24.9811 9.56259 25.6712 9.54777 26.396C9.53049 27.235 9.61445 28.0541 9.97502 28.8211C10.6912 30.3452 11.8692 31.2934 13.5362 31.5565C14.7118 31.7427 15.8651 31.5764 16.9838 31.1693C17.0974 31.1271 17.1394 31.0626 17.1394 30.9434C17.1345 30.4098 17.132 29.8736 17.1394 29.3399C17.1419 29.1736 17.095 29.114 16.9196 29.114C15.996 29.1215 15.0748 29.114 14.1512 29.1215C13.998 29.1215 13.9462 29.0842 13.9511 28.9229C13.9635 28.5704 13.9561 28.2204 13.9561 27.853C15.4131 27.8555 16.8529 27.8555 18.3174 27.8555Z" fill="black"/>
<path fill-rule="evenodd" clip-rule="evenodd" d="M48.6912 27.58C48.7653 27.9151 48.8122 28.1981 48.8888 28.4736C49.1036 29.2307 49.4766 29.8934 50.0396 30.4519C51.2251 31.626 52.8846 31.2984 53.8083 30.3502C54.3195 29.8264 54.601 29.1934 54.6134 28.4562C54.6233 27.9002 54.6504 27.3392 54.601 26.7882C54.4924 25.5992 53.5984 24.6063 52.4376 24.3407C51.4152 24.1073 50.5262 24.3928 49.7581 25.0853C48.7381 26.0087 47.8515 27.0612 46.9699 28.1137C45.9672 29.3101 44.9967 30.5314 44.0137 31.7427C44.0039 31.7551 43.9965 31.7725 43.9545 31.7799C43.952 31.7352 43.9446 31.6906 43.9446 31.6434C43.9446 31.0924 43.9397 30.5388 43.9495 29.9878C43.952 29.8934 43.9866 29.7842 44.0409 29.7097C44.9497 28.4934 45.9351 27.3442 46.96 26.2272C47.5181 25.6165 48.0788 25.0059 48.6715 24.4251C49.3407 23.7698 50.1162 23.2659 51.0423 23.0648C52.1462 22.8265 53.1662 23.0797 54.0824 23.7276C55.0258 24.3928 55.621 25.2988 55.8359 26.4431C55.8729 26.6417 55.8877 26.8502 55.8877 27.0538C55.8828 27.6669 55.9099 28.2849 55.8457 28.8931C55.6704 30.4991 54.4677 31.8718 52.8921 32.3235C51.1683 32.8175 49.4124 32.12 48.3973 30.5438C48.0886 30.0622 47.8639 29.5434 47.733 28.9874C47.7157 28.908 47.7404 28.7938 47.7898 28.7293C48.0565 28.3842 48.3381 28.0491 48.6122 27.7091C48.6394 27.6768 48.6542 27.6396 48.6912 27.58Z" fill="black"/>
<path fill-rule="evenodd" clip-rule="evenodd" d="M38.5957 30.581C38.5957 31.0204 38.6006 31.43 38.5907 31.837C38.5883 31.8991 38.5191 31.9736 38.4623 32.0133C38.124 32.2441 37.7387 32.3608 37.3411 32.4228C35.6074 32.6909 33.9651 31.9115 33.0736 30.3973C32.6982 29.7594 32.5006 29.0669 32.5056 28.3222C32.508 27.9573 32.508 27.5949 32.5056 27.23C32.4932 25.8499 33.0538 24.7403 34.1108 23.8864C36.4718 21.9801 40.1219 23.2162 40.7072 26.3364C40.7591 26.6194 40.7813 26.9123 40.7838 27.2002C40.7887 29.6403 40.7862 32.0803 40.7862 34.5203C40.7862 34.7487 40.7862 34.7487 40.5541 34.7512C40.2701 34.7512 39.9885 34.7437 39.7045 34.7537C39.5588 34.7586 39.5243 34.704 39.5243 34.5675C39.5292 33.9122 39.5267 33.2594 39.5267 32.604C39.5267 30.8243 39.5267 29.042 39.5267 27.2623C39.5267 26.6293 39.3909 26.0311 39.0229 25.5073C38.4426 24.6857 37.6498 24.2811 36.6422 24.2613C35.4617 24.2414 34.2121 25.0307 33.8688 26.4134C33.8145 26.6368 33.7898 26.8726 33.7824 27.1034C33.7676 27.5055 33.7774 27.9101 33.7774 28.3147C33.7774 29.7718 34.7875 30.9707 36.2248 31.1768C37.0102 31.2909 37.7535 31.1222 38.4302 30.6952C38.4722 30.6629 38.5191 30.6307 38.5957 30.581Z" fill="black"/>
<path fill-rule="evenodd" clip-rule="evenodd" d="M31.6781 21.578C31.3571 21.9279 31.0755 22.2382 30.7989 22.5386C30.4705 22.4145 30.1544 22.2506 29.8185 22.1737C27.8057 21.7145 26.0103 22.0992 24.5631 23.6556C23.9161 24.3506 23.558 25.202 23.4197 26.1378C23.353 26.5797 23.3283 27.0314 23.3283 27.4782C23.3184 29.8215 23.3234 32.1647 23.3234 34.5079C23.3234 34.7487 23.3234 34.7487 23.0838 34.7487C22.7949 34.7487 22.5059 34.7437 22.217 34.7512C22.096 34.7537 22.0515 34.709 22.0614 34.5948C22.0639 34.5675 22.0614 34.5377 22.0614 34.5104C22.0614 32.0704 22.0639 29.6303 22.0614 27.1903C22.0614 25.7829 22.4047 24.4797 23.2172 23.323C24.1779 21.9553 25.5041 21.151 27.1291 20.8432C28.3935 20.6024 29.6382 20.6819 30.8409 21.1585C31.1249 21.2677 31.3842 21.429 31.6781 21.578Z" fill="black"/>
<path fill-rule="evenodd" clip-rule="evenodd" d="M30.2437 23.3602C30.051 23.745 29.8708 24.1074 29.6929 24.4623C29.441 24.4028 29.1916 24.3184 28.9372 24.2886C27.7271 24.1446 26.5565 24.5269 25.9268 25.6985C25.6971 26.1254 25.5884 26.5896 25.5884 27.0737C25.586 29.5484 25.5884 32.0232 25.5884 34.498C25.5884 34.5725 25.5884 34.6445 25.5884 34.7338C25.1661 34.7338 24.7562 34.7338 24.3289 34.7338C24.3264 34.6743 24.319 34.6147 24.319 34.5551C24.319 32.0406 24.2968 29.5261 24.3264 27.0116C24.3487 24.9836 25.7391 23.4024 27.6333 23.0599C28.3915 22.9234 29.1398 22.968 29.8757 23.2014C30.0017 23.2386 30.1202 23.3056 30.2437 23.3602Z" fill="black"/>
<path fill-rule="evenodd" clip-rule="evenodd" d="M45.2861 15.0125C45.7084 15.0125 46.1135 15.0125 46.5358 15.0125C46.5382 15.082 46.5456 15.1415 46.5456 15.2011C46.5456 17.3755 46.5456 19.5475 46.5481 21.7219C46.5481 21.8336 46.5135 21.9056 46.4345 21.9875C46.0937 22.335 45.7628 22.695 45.4294 23.0499C45.3874 23.0946 45.3479 23.1393 45.2886 23.2088C45.2861 20.461 45.2861 17.7454 45.2861 15.0125Z" fill="black"/>
<path fill-rule="evenodd" clip-rule="evenodd" d="M47.5381 21.2999C47.5381 21.2056 47.5381 21.146 47.5381 21.084C47.5381 19.1329 47.5381 17.1819 47.5381 15.2284C47.5381 15 47.5381 15 47.7727 15C48.032 15 48.2938 15 48.5531 15C48.7951 15 48.7976 15 48.7976 15.2532C48.7976 15.628 48.7976 16.0053 48.7976 16.3801C48.7976 17.6709 48.7951 18.9641 48.8001 20.2549C48.8001 20.3889 48.7606 20.4659 48.642 20.5404C48.316 20.7464 48.0048 20.9748 47.6887 21.1932C47.6492 21.223 47.6097 21.2503 47.5381 21.2999Z" fill="black"/>
</g>
</svg>
