<svg width="78" height="56" viewBox="0 0 78 56" fill="none" xmlns="http://www.w3.org/2000/svg">
<path opacity="0.3" d="M48.8565 18C44.4027 18 40.4224 20.2717 40.4224 24.4689C40.4224 29.2823 47.4815 29.6147 47.4815 32.0328C47.4815 33.0509 46.2958 33.9624 44.2707 33.9624C41.3965 33.9624 39.2485 32.6889 39.2485 32.6889L38.3292 36.9243C38.3292 36.9243 40.8039 38 44.0892 38C48.9588 38 52.7904 35.6168 52.7904 31.3478C52.7904 26.2617 45.7021 25.9391 45.7021 23.6947C45.7021 22.897 46.6754 22.0231 48.6948 22.0231C50.9732 22.0231 52.8321 22.9493 52.8321 22.9493L53.7316 18.8586C53.7316 18.8586 51.709 18 48.8565 18ZM8.10785 18.3087L8 18.9262C8 18.9262 9.87375 19.2636 11.5614 19.9369C13.7344 20.7087 13.8891 21.1581 14.2551 22.5538L18.2429 37.6816H23.5886L31.8242 18.3087H26.4907L21.1989 31.4804L19.0396 20.3155C18.8415 19.0377 17.8384 18.3087 16.6106 18.3087H8.10785ZM33.9688 18.3087L29.7849 37.6816H34.8708L39.0401 18.3087H33.9688ZM62.3348 18.3087C61.1084 18.3087 60.4586 18.9549 59.9818 20.0839L52.5306 37.6816H57.8641L58.896 34.7487H65.3937L66.0212 37.6816H70.7273L66.6217 18.3087H62.3348ZM63.0285 23.5427L64.6095 30.8124H60.374L63.0285 23.5427Z" fill="black"/>
</svg>
