<svg width="78" height="56" viewBox="0 0 78 56" fill="none" xmlns="http://www.w3.org/2000/svg">
<g opacity="0.3">
<path d="M19.6313 18.266H23.6126V30.9026C23.6126 32.3215 23.2847 33.5629 22.6288 34.6271C21.979 35.6912 21.0687 36.521 19.898 37.1164C18.7272 37.7055 17.3633 38 15.8063 38C14.2432 38 12.8763 37.7055 11.7055 37.1164C10.5347 36.521 9.6244 35.6912 8.97464 34.6271C8.32488 33.5629 8 32.3215 8 30.9026V18.266H11.9813V30.5511C11.9813 31.2922 12.1376 31.9509 12.4502 32.5273C12.769 33.1037 13.2165 33.5566 13.7927 33.886C14.3689 34.2154 15.0401 34.38 15.8063 34.38C16.5787 34.38 17.2499 34.2154 17.8199 33.886C18.3961 33.5566 18.8406 33.1037 19.1532 32.5273C19.4719 31.9509 19.6313 31.2922 19.6313 30.5511V18.266Z" fill="black"/>
<path d="M36.9741 23.8622C36.9005 23.0958 36.5848 22.5004 36.027 22.076C35.4692 21.6516 34.7122 21.4394 33.7559 21.4394C33.1062 21.4394 32.5576 21.5344 32.1101 21.7245C31.6626 21.9082 31.3193 22.1647 31.0803 22.4941C30.8473 22.8234 30.7309 23.1972 30.7309 23.6152C30.7186 23.9636 30.7891 24.2676 30.9424 24.5273C31.1017 24.787 31.3193 25.0119 31.5952 25.2019C31.871 25.3856 32.1898 25.5471 32.5514 25.6865C32.9131 25.8195 33.2993 25.9335 33.71 26.0285L35.4018 26.4466C36.2232 26.6366 36.9771 26.8899 37.6637 27.2067C38.3502 27.5234 38.9448 27.9129 39.4475 28.3753C39.9501 28.8377 40.3393 29.3824 40.6152 30.0095C40.8972 30.6366 41.0412 31.3555 41.0473 32.1663C41.0412 33.3571 40.747 34.3895 40.1646 35.2637C39.5884 36.1314 38.7548 36.806 37.6637 37.2874C36.5787 37.7625 35.27 38 33.7375 38C32.2174 38 30.8933 37.7593 29.7654 37.2779C28.6437 36.7965 27.7671 36.0839 27.1357 35.1401C26.5105 34.19 26.1826 33.015 26.1519 31.6152H30.0045C30.0474 32.2676 30.2282 32.8124 30.547 33.2494C30.8719 33.6801 31.304 34.0063 31.8434 34.228C32.389 34.4434 33.005 34.5511 33.6916 34.5511C34.3659 34.5511 34.9512 34.4497 35.4478 34.247C35.9504 34.0443 36.3396 33.7625 36.6155 33.4014C36.8913 33.0404 37.0293 32.6255 37.0293 32.1568C37.0293 31.7197 36.9036 31.3523 36.6523 31.0546C36.4071 30.7569 36.0454 30.5036 35.5673 30.2945C35.0953 30.0855 34.516 29.8955 33.8295 29.7245L31.7791 29.1924C30.1915 28.7933 28.9379 28.1694 28.0184 27.3207C27.099 26.4719 26.6423 25.3286 26.6484 23.8907C26.6423 22.7126 26.9457 21.6833 27.5587 20.8029C28.1778 19.9224 29.0268 19.2352 30.1056 18.7411C31.1845 18.247 32.4104 18 33.7835 18C35.1811 18 36.4009 18.247 37.443 18.7411C38.4912 19.2352 39.3065 19.9224 39.8888 20.8029C40.4711 21.6833 40.7715 22.7031 40.7899 23.8622H36.9741Z" fill="black"/>
<path d="M50.2712 37.7245H43.5958V18.266H50.3264C52.2205 18.266 53.851 18.6556 55.2179 19.4347C56.5849 20.2074 57.6362 21.3191 58.3717 22.7696C59.1134 24.2201 59.4843 25.9557 59.4843 27.9762C59.4843 30.0032 59.1134 31.7451 58.3717 33.2019C57.6362 34.6587 56.5788 35.7767 55.1996 36.5558C53.8265 37.3349 52.1837 37.7245 50.2712 37.7245ZM47.5771 34.1995H50.1057C51.2826 34.1995 52.2726 33.9842 53.0756 33.5534C53.8847 33.1164 54.4916 32.4418 54.8961 31.5297C55.3068 30.6112 55.5122 29.4268 55.5122 27.9762C55.5122 26.5384 55.3068 25.3634 54.8961 24.4513C54.4916 23.5392 53.8878 22.8678 53.0848 22.4371C52.2818 22.0063 51.2918 21.791 50.1149 21.791H47.5771V34.1995Z" fill="black"/>
<path d="M69.7425 23.1306V26.171H61.2374V23.1306H69.7425ZM63.1683 19.6342H67.0853V33.2399C67.0853 33.6136 67.1404 33.905 67.2508 34.114C67.3611 34.3167 67.5144 34.4592 67.7105 34.5416C67.9128 34.6239 68.1457 34.6651 68.4093 34.6651C68.5932 34.6651 68.7771 34.6492 68.961 34.6176C69.1449 34.5796 69.2859 34.5511 69.384 34.5321L70 37.5439C69.8038 37.6073 69.528 37.6801 69.1725 37.7625C68.8169 37.8511 68.3848 37.905 67.876 37.924C66.932 37.962 66.1045 37.8321 65.3935 37.5344C64.6885 37.2367 64.1399 36.7743 63.7476 36.1473C63.3553 35.5202 63.1622 34.7284 63.1683 33.772V19.6342Z" fill="black"/>
</g>
</svg>
