<svg width="86" height="56" viewBox="0 0 86 56" fill="none" xmlns="http://www.w3.org/2000/svg">
<g opacity="0.3">
<path d="M23.9 28.8117C23.3998 27.8356 22.5334 27.2255 21.3255 26.9815C21.2279 26.9571 21.1303 26.9571 21.0326 26.9449L20.8984 26.9327C20.813 26.9205 20.7032 26.9083 20.5202 26.9083H20.4226H18.4581V24.956C18.4581 24.6998 18.4459 24.5656 18.4337 24.4679L18.4215 24.3337C18.4093 24.2361 18.3971 24.1263 18.3849 24.0409C18.1409 22.8329 17.5308 21.9544 16.5547 21.4663C15.8104 21.0881 15.1271 21.0759 15.1149 21.0759H15.0051C14.8098 21.0759 14.6756 21.0881 14.5048 21.1125C11.308 21.5396 11.3446 24.6144 11.3568 24.7364V30.4223C11.3568 31.5693 11.674 32.4722 12.2841 33.1067C12.9186 33.7167 13.8215 34.0218 14.9563 34.0218H20.6788C20.996 34.0218 23.8634 33.9364 24.2783 30.8738C24.3027 30.6786 24.3149 30.5199 24.3149 30.2637C24.3027 30.2515 24.2905 29.5682 23.9 28.8117Z" fill="black"/>
<path d="M25.8764 33.5825C24.8759 35.4493 22.8382 36.1204 22.2403 36.279C21.8865 36.3767 21.5814 36.4133 21.008 36.4499H20.9958H14.1507C14.1507 36.4499 13.687 36.4499 13.2111 36.3279C12.8817 36.2424 12.4668 36.1082 12.1252 35.9618C11.7225 35.7788 11.2589 35.5225 10.6244 34.8881L10.5268 34.7905C10.0265 34.278 9.53846 33.5581 9.29443 32.948C9.16021 32.6064 9.11141 32.4355 9.0382 32.1061C8.92838 31.6546 8.92838 31.1666 8.92838 31.13V24.3703C8.96499 23.7846 9.01379 23.4674 9.0992 23.1257C9.25783 22.5279 9.91671 20.4902 11.7958 19.4897C12.8573 18.8918 13.9432 18.5867 15.0292 18.5867C16.7008 18.5867 17.7989 19.3188 17.8355 19.3554C20.7883 21.1369 20.8737 24.0775 20.8737 24.4923C21.3008 24.4801 24.2292 24.5655 26.0228 27.5549C26.035 27.5549 27.8042 30.1538 25.8764 33.5825ZM25.5592 16H9.45305C7.5496 16 6 17.5496 6 19.4531V35.547C6 37.4504 7.5496 39 9.45305 39H25.547C27.4504 39 29 37.4504 29 35.547V19.4653C29.0122 17.5496 27.4626 16 25.5592 16Z" fill="black"/>
<path d="M76.4889 21.6005H75.7446V23.5406H75.2931V21.6005H74.5488V21.1979H76.4889V21.6005Z" fill="black"/>
<path d="M78.7579 23.5406V21.991L78.1479 23.1379H77.9038L77.306 21.991V23.5406H76.8545V21.1979H77.3426L78.0258 22.5279L78.7213 21.1979H79.2094V23.5406H78.7579Z" fill="black"/>
<path d="M36.2351 26.9814C35.7715 26.9814 35.3444 27.079 34.9296 27.2865C34.5147 27.4939 34.1609 27.7623 33.8558 28.104C33.5508 28.4456 33.3068 28.8605 33.1237 29.3241C32.9407 29.7878 32.8553 30.3003 32.8553 30.8249C32.8553 31.374 32.9407 31.8865 33.1115 32.3379C33.2824 32.8016 33.5264 33.2042 33.8192 33.5337C34.1243 33.8753 34.4781 34.1438 34.893 34.3268C35.2956 34.522 35.7471 34.6196 36.2229 34.6196C36.6988 34.6196 37.1381 34.522 37.5529 34.3268C37.9556 34.1316 38.3216 33.8631 38.6267 33.5215C38.9317 33.1798 39.1635 32.765 39.3343 32.3135C39.5052 31.8499 39.5906 31.3374 39.5906 30.8005C39.5906 30.2637 39.5052 29.7634 39.3343 29.2997C39.1635 28.8361 38.9195 28.4212 38.6267 28.0796C38.3216 27.7379 37.9678 27.4573 37.5529 27.2743C37.1503 27.079 36.6988 26.9814 36.2351 26.9814ZM36.2351 36.8037C35.32 36.8037 34.4903 36.6451 33.7704 36.3156C33.0383 35.9984 32.416 35.547 31.9036 35.0101C31.3911 34.461 30.9885 33.8265 30.7078 33.0944C30.4272 32.3623 30.293 31.5936 30.293 30.8005C30.293 30.0074 30.4272 29.2387 30.7078 28.5066C30.9885 27.7745 31.3911 27.1279 31.9158 26.591C32.4404 26.0419 33.0749 25.6027 33.7948 25.2854C34.5269 24.9682 35.3444 24.7973 36.2473 24.7973C37.1381 24.7973 37.9678 24.9682 38.6999 25.2854C39.432 25.6027 40.0664 26.0541 40.5789 26.591C41.1036 27.1401 41.5062 27.7745 41.7869 28.5066C42.0675 29.2387 42.2139 30.0074 42.2139 30.8005C42.2139 31.5936 42.0675 32.3623 41.7869 33.0944C41.5062 33.8265 41.1036 34.4732 40.5789 35.0101C40.0542 35.5592 39.4198 35.9984 38.6999 36.3156C37.9556 36.6451 37.1259 36.8037 36.2351 36.8037Z" fill="black"/>
<path d="M49.3885 26.9814C48.9248 26.9814 48.4977 27.079 48.0829 27.2865C47.668 27.4939 47.3142 27.7623 47.0092 28.104C46.7041 28.4456 46.4601 28.8605 46.2771 29.3241C46.094 29.7878 46.0086 30.3003 46.0086 30.8249C46.0086 31.374 46.094 31.8865 46.2649 32.3379C46.4357 32.8016 46.6797 33.2042 46.9725 33.5337C47.2776 33.8753 47.6314 34.1438 48.0463 34.3268C48.4489 34.522 48.9004 34.6196 49.3763 34.6196C49.8521 34.6196 50.2914 34.522 50.7062 34.3268C51.1089 34.1316 51.4749 33.8631 51.78 33.5215C52.085 33.1798 52.329 32.765 52.4999 32.3135C52.6707 31.8499 52.7561 31.3374 52.7561 30.8005C52.7561 30.2637 52.6707 29.7634 52.4999 29.2997C52.329 28.8361 52.085 28.4212 51.78 28.0796C51.4749 27.7379 51.1211 27.4573 50.7062 27.2743C50.3036 27.079 49.8643 26.9814 49.3885 26.9814ZM49.3885 36.8037C48.4733 36.8037 47.6436 36.6451 46.9237 36.3156C46.1916 35.9984 45.5694 35.547 45.0569 35.0101C44.5444 34.461 44.1418 33.8265 43.8611 33.0944C43.5805 32.3623 43.4463 31.5936 43.4463 30.8005C43.4463 30.0074 43.5805 29.2387 43.8611 28.5066C44.1418 27.7745 44.5444 27.1279 45.0691 26.591C45.5938 26.0419 46.2283 25.6027 46.9481 25.2854C47.6802 24.9682 48.4977 24.7973 49.4007 24.7973C50.2914 24.7973 51.1211 24.9682 51.8532 25.2854C52.5853 25.6027 53.2198 26.0541 53.7322 26.591C54.2569 27.1401 54.6596 27.7745 54.9402 28.5066C55.2208 29.2387 55.3672 30.0074 55.3672 30.8005C55.3672 31.5936 55.2208 32.3623 54.9402 33.0944C54.6596 33.8265 54.2569 34.4732 53.7322 35.0101C53.2076 35.5592 52.5731 35.9984 51.8532 36.3156C51.1089 36.6451 50.2792 36.8037 49.3885 36.8037Z" fill="black"/>
<path d="M61.5172 36.8037C61.0535 36.8037 60.5654 36.7671 60.0896 36.6939C59.6137 36.6206 59.1378 36.5108 58.6742 36.3766C58.2105 36.2424 57.7713 36.0716 57.3442 35.8641C56.9294 35.6689 56.5511 35.4371 56.2217 35.1931L56.1851 35.1565L57.2466 33.4482L57.2954 33.4848C58.6864 34.4488 60.0774 34.949 61.4561 34.949C62.176 34.949 62.7495 34.8148 63.1644 34.5464C63.5792 34.2779 63.7744 33.8997 63.7744 33.4116C63.7744 32.948 63.5548 32.6185 63.0912 32.3989C62.6153 32.1793 61.8588 31.9352 60.8339 31.6912C60.114 31.5204 59.4917 31.3374 58.9792 31.1543C58.4668 30.9713 58.0397 30.7639 57.7103 30.532C57.3808 30.3002 57.1368 30.0196 56.9904 29.7023C56.8439 29.3851 56.7707 28.9947 56.7707 28.5554C56.7707 27.9697 56.8928 27.4328 57.1246 26.9692C57.3564 26.5055 57.6859 26.1151 58.0885 25.7978C58.4912 25.4806 58.9792 25.2366 59.5283 25.0779C60.0774 24.9193 60.6752 24.8339 61.3097 24.8339C62.1394 24.8339 62.9691 24.9681 63.7378 25.2366C64.5187 25.505 65.2264 25.8588 65.8365 26.3225L65.8853 26.3591L64.7872 27.9209L64.7384 27.8843C63.6524 27.079 62.4811 26.6641 61.2609 26.6641C60.663 26.6641 60.1506 26.7862 59.7357 27.0424C59.3209 27.2864 59.1256 27.6769 59.1256 28.2137C59.1256 28.4334 59.1622 28.6286 59.2477 28.775C59.3331 28.9214 59.4673 29.0557 59.6503 29.1655C59.8455 29.2753 60.1018 29.3851 60.419 29.4827C60.7363 29.5803 61.1389 29.6779 61.6026 29.8C62.3835 29.9952 63.079 30.1782 63.6524 30.3734C64.2259 30.5687 64.7018 30.7883 65.08 31.0445C65.4583 31.3008 65.7389 31.618 65.9219 31.9718C66.105 32.3257 66.1904 32.7405 66.1904 33.2408C66.1904 33.7899 66.0806 34.2901 65.8609 34.7294C65.6413 35.1687 65.3241 35.5591 64.9092 35.8641C64.5065 36.1692 64.0063 36.4132 63.4206 36.584C62.8715 36.7183 62.2248 36.8037 61.5172 36.8037Z" fill="black"/>
<path d="M71.5225 36.7671C71.1442 36.7671 70.7782 36.7183 70.4365 36.6085C70.1071 36.5108 69.802 36.3522 69.5458 36.1326C69.2896 35.9252 69.0699 35.6445 68.9235 35.3151C68.7771 34.9856 68.7039 34.5708 68.7039 34.0949V26.9692H67.1665V24.9925H68.7039V21.2222H71.2296V24.9925H73.731V26.9692H71.2296V33.3262C71.2296 33.7167 71.3394 33.9973 71.5591 34.1681C71.7787 34.339 72.0593 34.4366 72.3766 34.4366C72.706 34.4366 73.0233 34.3756 73.3283 34.2657C73.6333 34.1559 73.8652 34.0583 73.9994 33.9851L74.0604 33.9607L74.6217 35.974L74.5729 35.9984C74.2556 36.1448 73.8164 36.3156 73.2795 36.4986C72.7426 36.6695 72.1569 36.7671 71.5225 36.7671Z" fill="black"/>
</g>
</svg>
