<svg width="50" height="50" viewBox="0 0 50 50" fill="none" xmlns="http://www.w3.org/2000/svg">
<rect width="50" height="50" rx="11" fill="#E3F8E3" fill-opacity="0.85"/>
<g clip-path="url(#clip0_1616_630)">
<g clip-path="url(#clip1_1616_630)">
<path d="M30.465 16.4661C29.7644 16.4661 29.0698 16.5449 28.3952 16.6786C27.7126 16.5404 27.005 16.4661 26.2834 16.4661C25.5073 16.4661 24.7385 16.5504 23.9977 16.7155L24.01 16.7732C23.2143 16.5801 22.3877 16.4661 21.5349 16.4661C15.7256 16.4661 11 21.1922 11 27.001C11 32.8079 15.7261 37.5339 21.5349 37.5339C22.3473 37.5339 23.1357 37.4321 23.8959 37.2585C24.6736 37.4392 25.476 37.5339 26.2834 37.5339C27.012 37.5339 27.7245 37.4586 28.4132 37.3175C29.0868 37.4517 29.7755 37.5339 30.465 37.5339C36.2738 37.5339 40.9999 32.8079 40.9999 27.001C41 21.1916 36.2739 16.4661 30.465 16.4661ZM28.3732 36.2804C28.3273 36.2715 28.2814 36.2684 28.2355 36.2575L28.2221 36.3209C27.5947 36.4507 26.9476 36.5195 26.2839 36.5195C26.2031 36.5195 26.124 36.5091 26.0452 36.5051C29.6008 34.812 32.0689 31.1947 32.0689 27.0011C32.0689 22.8055 29.5987 19.1873 26.0422 17.4948C26.123 17.4934 26.2036 17.4811 26.2844 17.4811C31.533 17.4811 35.8029 21.7523 35.8029 27.0011C35.8024 31.5299 32.6197 35.3253 28.3732 36.2804ZM30.7994 36.5015C34.3502 34.8084 36.8163 31.1911 36.8163 27.001C36.8163 22.8085 34.3502 19.1922 30.7994 17.4985C35.8937 17.6757 39.986 21.8643 39.986 27.001C39.986 32.1378 35.8932 36.3263 30.7994 36.5015Z" fill="#25C660"/>
<path d="M22.523 32.4635V30.8524C23.189 30.7966 23.7261 30.6797 24.1342 30.502L23.8442 28.8177C23.4414 28.9904 22.9097 29.0846 22.2491 29.1003C21.6666 29.1 21.1695 28.924 20.7578 28.5723C20.346 28.2206 20.1309 27.6951 20.1123 26.996C20.1211 26.3512 20.3155 25.8388 20.6953 25.4591C21.0752 25.0793 21.5878 24.885 22.233 24.8762C22.856 24.8839 23.334 24.9781 23.667 25.1586L24.0537 23.2854C23.8318 23.1996 23.5867 23.1292 23.3186 23.0741C23.0503 23.019 22.7852 22.987 22.523 22.9781V21.5432H20.944V23.1039C19.8842 23.3294 19.0818 23.8064 18.5368 24.535C17.9918 25.2635 17.7181 26.11 17.7158 27.0745C17.7287 28.1331 18.0121 28.9996 18.5662 29.674C19.1052 30.3249 19.8978 30.7287 20.944 30.8855V32.4635H22.523Z" fill="#E7F9E7"/>
</g>
</g>
<defs>
<clipPath id="clip0_1616_630">
<rect width="30" height="30" fill="white" transform="translate(10 10)"/>
</clipPath>
<clipPath id="clip1_1616_630">
<rect width="30" height="30" fill="white" transform="translate(11 12)"/>
</clipPath>
</defs>
</svg>
