<svg width="50" height="50" viewBox="0 0 50 50" fill="none" xmlns="http://www.w3.org/2000/svg">
<rect width="50" height="50" rx="11" fill="#E3F8E3" fill-opacity="0.85"/>
<path d="M35.8 19H32.44C33.04 18.4 33.4 17.56 33.4 16.6C33.4 14.56 31.84 13 29.8 13C28.6 13 26.44 14.08 25 15.52C23.56 14.08 21.4 13 20.2 13C18.16 13 16.6 14.56 16.6 16.6C16.6 17.56 16.96 18.4 17.56 19H14.2C13.48 19 13 19.48 13 20.2V23.56C13 23.68 13.12 23.8 13.24 23.8H23.32C23.56 23.8 23.8 23.56 23.8 23.32V19.48C23.8 19.24 24.04 19 24.28 19H25.72C25.96 19 26.2 19.24 26.2 19.48V23.32C26.2 23.56 26.44 23.8 26.68 23.8H36.76C36.88 23.8 37 23.68 37 23.56V20.2C37 19.48 36.52 19 35.8 19ZM20.2 17.8C19.48 17.8 19 17.32 19 16.6C19 15.88 19.48 15.4 20.2 15.4C20.92 15.4 23.08 16.84 23.68 17.56C23.32 17.68 20.2 17.8 20.2 17.8ZM29.8 17.8C29.8 17.8 26.68 17.68 26.32 17.56C27.04 16.72 29.08 15.4 29.8 15.4C30.52 15.4 31 15.88 31 16.6C31 17.32 30.52 17.8 29.8 17.8Z" fill="#25C660"/>
<path d="M23.32 26.1998H14.44C14.32 26.1998 14.2 26.3198 14.2 26.4398V35.7998C14.2 36.5198 14.68 36.9998 15.4 36.9998H23.32C23.56 36.9998 23.8 36.7598 23.8 36.5198V26.6798C23.8 26.4398 23.56 26.1998 23.32 26.1998Z" fill="#25C660"/>
<path d="M35.56 26.1998H26.68C26.44 26.1998 26.2 26.4398 26.2 26.6798V36.5198C26.2 36.7598 26.44 36.9998 26.68 36.9998H34.6C35.32 36.9998 35.8 36.5198 35.8 35.7998V26.4398C35.8 26.3198 35.68 26.1998 35.56 26.1998Z" fill="#25C660"/>
</svg>
