<svg width="50" height="50" viewBox="0 0 50 50" fill="none" xmlns="http://www.w3.org/2000/svg">
<rect width="50" height="50" rx="11" fill="#E3F8E3" fill-opacity="0.85"/>
<path d="M39 24.5C39 26.2345 38.6775 27.8597 38.0326 29.3756C37.3877 30.8914 36.5111 32.2131 35.4029 33.3405C34.2947 34.4679 32.9955 35.3597 31.5055 36.0158C30.0155 36.6719 28.4181 37 26.7131 37C26.4055 37 26.1479 36.8944 25.9403 36.6832C25.7328 36.4721 25.629 36.21 25.629 35.8971C25.629 35.5841 25.7328 35.322 25.9403 35.1109C26.1479 34.8997 26.4055 34.7941 26.7131 34.7941C29.5319 34.7941 31.923 33.7954 33.8865 31.7978C35.85 29.8003 36.8318 27.3677 36.8318 24.5C36.8318 21.6323 35.85 19.1997 33.8865 17.2022C31.923 15.2046 29.5319 14.2059 26.7131 14.2059C23.8943 14.2059 21.5032 15.2046 19.5397 17.2022C17.5762 19.1997 16.5944 21.6323 16.5944 24.5L16.5944 24.8903L18.1289 23.3292C18.3439 23.1105 18.5955 23.0025 18.8836 23.0054C19.1718 23.0082 19.428 23.1161 19.6523 23.3292C19.8765 23.5573 19.9923 23.8194 19.9997 24.1154C20.0072 24.4113 19.8987 24.6734 19.6745 24.9015L16.411 28.2075C16.1497 28.4733 15.8448 28.6063 15.4964 28.6063C15.148 28.6063 14.8432 28.4733 14.5819 28.2075L11.3184 24.8732C11.1034 24.6546 10.9973 24.3949 11.0001 24.0942C11.0028 23.7934 11.1164 23.529 11.3406 23.3009C11.5648 23.0878 11.8187 22.9775 12.1023 22.97C12.3858 22.9625 12.6397 23.0728 12.8639 23.3009L14.4262 24.8903L14.4262 24.5C14.4262 22.7655 14.7487 21.1403 15.3936 19.6244C16.0385 18.1086 16.9151 16.787 18.0233 15.6595C19.1315 14.5321 20.4307 13.6403 21.9206 12.9842C23.4106 12.3281 25.0081 12 26.7131 12C28.4181 12 30.0155 12.3281 31.5055 12.9842C32.9955 13.6403 34.2947 14.5321 35.4029 15.6595C36.5111 16.787 37.3877 18.1086 38.0326 19.6244C38.6775 21.1403 39 22.7655 39 24.5Z" fill="#25C660"/>
<path d="M26.4313 32C26.1946 32 25.9934 31.916 25.8277 31.748C25.6619 31.58 25.5791 31.3716 25.5791 31.1227V30.3387C25.0109 30.2018 24.5168 29.9622 24.0966 29.62C23.6764 29.2778 23.3361 28.8204 23.0757 28.248C22.9692 27.9991 22.9751 27.7409 23.0934 27.4733C23.2118 27.2058 23.4071 27.0222 23.6793 26.9227C23.9042 26.8231 24.1321 26.8293 24.3629 26.9413C24.5937 27.0533 24.792 27.24 24.9577 27.5013C25.1471 27.8 25.3779 28.024 25.6501 28.1733C25.9224 28.3227 26.2301 28.3973 26.5734 28.3973C27.0231 28.3973 27.3782 28.3102 27.6386 28.136C27.899 27.9618 28.0292 27.688 28.0292 27.3147C28.0292 26.9662 27.8931 26.6676 27.6209 26.4187C27.3486 26.1698 26.7509 25.9022 25.8277 25.616C24.8571 25.3049 24.1706 24.888 23.7681 24.3653C23.3657 23.8427 23.1645 23.2204 23.1645 22.4987C23.1645 21.7396 23.3982 21.1049 23.8658 20.5947C24.3333 20.0844 24.9044 19.7609 25.5791 19.624V18.8773C25.5791 18.6284 25.6619 18.42 25.8277 18.252C25.9934 18.084 26.1946 18 26.4313 18C26.6799 18 26.8811 18.084 27.035 18.252C27.1888 18.42 27.2658 18.6284 27.2658 18.8773V19.624C27.7156 19.736 28.115 19.9071 28.4642 20.1373C28.8134 20.3676 29.1063 20.6631 29.3431 21.024C29.497 21.248 29.5236 21.5 29.423 21.78C29.3224 22.06 29.13 22.2622 28.8459 22.3867C28.6566 22.4738 28.4494 22.48 28.2245 22.4053C27.9996 22.3307 27.7511 22.1813 27.4788 21.9573C27.3486 21.8329 27.1918 21.7364 27.0083 21.668C26.8249 21.5996 26.6148 21.5653 26.3781 21.5653C25.9401 21.5653 25.6235 21.6493 25.4282 21.8173C25.2329 21.9853 25.1352 22.1938 25.1352 22.4427C25.1352 22.7662 25.2684 23.0276 25.5347 23.2267C25.801 23.4258 26.3958 23.6684 27.319 23.9547C28.1831 24.2284 28.8459 24.6516 29.3076 25.224C29.7692 25.7964 30 26.4809 30 27.2773C30 28.2107 29.7396 28.9262 29.2188 29.424C28.698 29.9218 28.047 30.2391 27.2658 30.376V31.1227C27.2658 31.3716 27.1859 31.58 27.0261 31.748C26.8663 31.916 26.668 32 26.4313 32Z" fill="#25C660"/>
</svg>
