<svg width="50" height="50" viewBox="0 0 50 50" fill="none" xmlns="http://www.w3.org/2000/svg">
<rect width="50" height="50" rx="11" fill="#E3F8E3" fill-opacity="0.85"/>
<g clip-path="url(#clip0_5952_2457)">
<path d="M26.0879 17.1758C26.6445 16.834 27.0156 16.2139 27.0156 15.5156C27.0156 14.4365 26.1416 13.5625 25.0625 13.5625C23.9834 13.5625 23.1094 14.4365 23.1094 15.5156C23.1094 16.2188 23.4805 16.834 24.0371 17.1758L21.2393 22.7715C20.7949 23.6602 19.6426 23.9141 18.8662 23.2939L14.5156 19.8125C14.7598 19.4854 14.9062 19.0801 14.9062 18.6406C14.9062 17.5615 14.0322 16.6875 12.9531 16.6875C11.874 16.6875 11 17.5615 11 18.6406C11 19.7197 11.874 20.5938 12.9531 20.5938C12.9629 20.5938 12.9775 20.5938 12.9873 20.5938L15.2188 32.8691C15.4873 34.3535 16.7812 35.4375 18.2949 35.4375H31.8301C33.3389 35.4375 34.6328 34.3584 34.9062 32.8691L37.1377 20.5938C37.1475 20.5938 37.1621 20.5938 37.1719 20.5938C38.251 20.5938 39.125 19.7197 39.125 18.6406C39.125 17.5615 38.251 16.6875 37.1719 16.6875C36.0928 16.6875 35.2188 17.5615 35.2188 18.6406C35.2188 19.0801 35.3652 19.4854 35.6094 19.8125L31.2588 23.2939C30.4824 23.9141 29.3301 23.6602 28.8857 22.7715L26.0879 17.1758Z" fill="#25C660"/>
</g>
<defs>
<clipPath id="clip0_5952_2457">
<rect width="28.125" height="25" fill="white" transform="translate(11 12)"/>
</clipPath>
</defs>
</svg>
