<svg width="50" height="50" viewBox="0 0 50 50" fill="none" xmlns="http://www.w3.org/2000/svg">
<rect width="50" height="50" rx="11" fill="#E3F8E3" fill-opacity="0.85"/>
<path d="M25 28.6875L28.8125 31.5938C29 31.7396 29.1823 31.7448 29.3594 31.6094C29.5365 31.474 29.5938 31.2917 29.5312 31.0625L28 26.3438L31.7812 23.6562C31.9688 23.5104 32.0312 23.3333 31.9688 23.125C31.9062 22.9167 31.7604 22.8125 31.5312 22.8125H26.9062L25.4375 17.9375C25.375 17.7083 25.2344 17.5938 25.0156 17.5938C24.7969 17.5938 24.6458 17.7083 24.5625 17.9375L23.0625 22.8125H18.4375C18.2083 22.8125 18.0625 22.9167 18 23.125C17.9375 23.3333 18 23.5104 18.1875 23.6562L21.9688 26.3438L20.4688 31.0938C20.4062 31.3229 20.4635 31.5 20.6406 31.625C20.8177 31.75 21 31.7396 21.1875 31.5938L25 28.6875ZM25 37.5C23.2292 37.5 21.5833 37.1823 20.0625 36.5469C18.5417 35.9115 17.2188 35.0312 16.0938 33.9062C14.9688 32.7812 14.0885 31.4583 13.4531 29.9375C12.8177 28.4167 12.5 26.7708 12.5 25C12.5 23.25 12.8177 21.6146 13.4531 20.0938C14.0885 18.5729 14.9688 17.25 16.0938 16.125C17.2188 15 18.5417 14.1146 20.0625 13.4688C21.5833 12.8229 23.2292 12.5 25 12.5C26.75 12.5 28.3854 12.8229 29.9062 13.4688C31.4271 14.1146 32.75 15 33.875 16.125C35 17.25 35.8854 18.5729 36.5312 20.0938C37.1771 21.6146 37.5 23.25 37.5 25C37.5 26.7708 37.1771 28.4167 36.5312 29.9375C35.8854 31.4583 35 32.7812 33.875 33.9062C32.75 35.0312 31.4271 35.9115 29.9062 36.5469C28.3854 37.1823 26.75 37.5 25 37.5ZM25 35.625C28.0208 35.625 30.5469 34.6094 32.5781 32.5781C34.6094 30.5469 35.625 28.0208 35.625 25C35.625 21.9792 34.6094 19.4531 32.5781 17.4219C30.5469 15.3906 28.0208 14.375 25 14.375C21.9792 14.375 19.4531 15.3906 17.4219 17.4219C15.3906 19.4531 14.375 21.9792 14.375 25C14.375 28.0208 15.3906 30.5469 17.4219 32.5781C19.4531 34.6094 21.9792 35.625 25 35.625Z" fill="#25C660"/>
</svg>
