<svg width="50" height="50" viewBox="0 0 50 50" fill="none" xmlns="http://www.w3.org/2000/svg">
<rect width="50" height="50" rx="11" fill="white" fill-opacity="0.12"/>
<path d="M39.1818 17.9504V32.0496C39.1813 32.3015 39.0861 32.543 38.917 32.7211C38.7478 32.8992 38.5186 32.9995 38.2794 33H11.9043C11.6648 33 11.4351 32.8999 11.2655 32.7218C11.096 32.5436 11.0005 32.3019 11 32.0496V17.9504C11.0005 17.6985 11.0957 17.457 11.2649 17.2789C11.434 17.1008 11.6632 17.0005 11.9024 17H38.2775C38.517 17 38.7467 17.1001 38.9163 17.2782C39.0858 17.4564 39.1813 17.6981 39.1818 17.9504ZM31.3385 25.003C31.3357 23.4253 30.7766 21.905 29.7697 20.7368C28.7627 19.5687 27.3797 18.8361 25.8888 18.6811C24.398 18.5261 22.9056 18.9598 21.7012 19.8981C20.4968 20.8363 19.6663 22.2122 19.3707 23.7588C19.075 25.3055 19.3354 26.9127 20.1013 28.2686C20.8673 29.6245 22.0841 30.6324 23.5157 31.097C24.9474 31.5615 26.4919 31.4495 27.8496 30.7826C29.2072 30.1158 30.2813 28.9416 30.8635 27.4879C31.1788 26.7017 31.3404 25.8565 31.3385 25.003ZM27.5844 25.2351C27.9149 25.6336 28.0971 26.1446 28.0974 26.6736C28.0961 27.0489 28.0012 27.4172 27.8221 27.7417C27.6431 28.0662 27.3862 28.3354 27.0772 28.5223C26.7559 28.7365 26.4017 28.8902 26.0304 28.9765V29.7068C26.0304 29.9169 25.9511 30.1184 25.81 30.267C25.6689 30.4156 25.4776 30.4991 25.278 30.4991C25.0785 30.4991 24.8872 30.4156 24.7461 30.267C24.605 30.1184 24.5257 29.9169 24.5257 29.7068V28.9865C24.2892 28.9367 24.0581 28.8616 23.8361 28.7624C23.4914 28.6118 23.1864 28.3757 22.947 28.0742C22.8769 27.9965 22.8225 27.9047 22.7871 27.8043C22.7516 27.7039 22.7359 27.5969 22.7408 27.4899C22.7458 27.3829 22.7712 27.2781 22.8157 27.1818C22.8602 27.0854 22.9228 26.9996 22.9997 26.9295C23.0766 26.8593 23.1662 26.8063 23.2631 26.7737C23.3599 26.7411 23.4621 26.7294 23.5634 26.7396C23.6646 26.7497 23.7629 26.7813 23.8522 26.8326C23.9416 26.8838 24.0201 26.9536 24.0831 27.0378C24.1664 27.1467 24.2732 27.2331 24.3946 27.2899C24.5266 27.3509 24.6641 27.3978 24.805 27.4299C24.9518 27.4594 25.1003 27.4782 25.2495 27.4859C25.6056 27.4869 25.9551 27.3851 26.2602 27.1918C26.5946 26.9637 26.5946 26.7677 26.5946 26.6716C26.5928 26.5267 26.5423 26.387 26.4521 26.2775C26.3555 26.1627 26.2412 26.066 26.114 25.9914C25.9817 25.9199 25.8412 25.8667 25.696 25.8333C25.5616 25.8043 25.4247 25.7902 25.2875 25.7913C25.0622 25.7917 24.8373 25.7723 24.615 25.7333C24.314 25.681 24.022 25.5819 23.7487 25.4392C23.4308 25.2719 23.1503 25.0352 22.9261 24.7449C22.6157 24.3508 22.4433 23.8564 22.4378 23.3444C22.445 22.9561 22.547 22.5764 22.734 22.2417C22.921 21.9071 23.1867 21.6288 23.5055 21.4337C23.8199 21.2297 24.1648 21.0836 24.5257 21.0015V20.2972C24.5257 20.0871 24.605 19.8856 24.7461 19.737C24.8872 19.5884 25.0785 19.5049 25.278 19.5049C25.4776 19.5049 25.6689 19.5884 25.81 19.737C25.9511 19.8856 26.0304 20.0871 26.0304 20.2972V21.0235C26.2722 21.083 26.5077 21.1682 26.7333 21.2776C27.0235 21.4159 27.2879 21.6076 27.5141 21.8438C27.6453 21.9942 27.7162 22.1921 27.7122 22.3962C27.7081 22.6003 27.6294 22.795 27.4925 22.9395C27.3555 23.084 27.1708 23.1672 26.977 23.1718C26.7832 23.1764 26.5952 23.1021 26.4521 22.9642C26.3544 22.8633 26.2406 22.7814 26.1159 22.7221C25.98 22.6551 25.8381 22.6029 25.6922 22.5661L25.6485 22.5561C25.5338 22.5253 25.4169 22.5045 25.2989 22.4941C24.9519 22.4933 24.6109 22.59 24.311 22.7742C24.2075 22.8268 24.119 22.9072 24.0543 23.0073C23.9896 23.1074 23.951 23.2236 23.9425 23.3444C23.9503 23.4917 24.0037 23.6322 24.0945 23.7445C24.1838 23.8607 24.2951 23.9561 24.4212 24.0246C24.5606 24.0961 24.7091 24.146 24.862 24.1727C25.0027 24.1966 25.145 24.2079 25.2875 24.2067C25.5327 24.2061 25.7773 24.233 26.0171 24.2867C26.2946 24.3506 26.5629 24.4529 26.815 24.5908C27.1058 24.7556 27.3664 24.9738 27.5844 25.2351Z" fill="#25C660"/>
</svg>
