<svg width="22" height="22" viewBox="0 0 22 22" fill="none" xmlns="http://www.w3.org/2000/svg">
<g clip-path="url(#clip0_21_3087)">
<path d="M9.76258 12.2373L7.33341 11.1603C7.25703 11.1297 7.21883 11.0762 7.21883 10.9998C7.21883 10.9234 7.25703 10.87 7.33341 10.8394L9.76258 9.73942L10.8397 7.31025C10.8702 7.23386 10.9237 7.19567 11.0001 7.19567C11.0765 7.19567 11.1299 7.23386 11.1605 7.31025L12.2605 9.73942L14.6897 10.8394C14.7661 10.87 14.8042 10.9234 14.8042 10.9998C14.8042 11.0762 14.7661 11.1297 14.6897 11.1603L12.2605 12.2373L11.1605 14.6665C11.1299 14.7429 11.0765 14.7811 11.0001 14.7811C10.9237 14.7811 10.8702 14.7429 10.8397 14.6665L9.76258 12.2373ZM11.0001 21.0832C9.28897 21.0832 7.63897 20.579 6.05008 19.5707C4.46119 18.5623 3.20841 17.4089 2.29175 16.1103V18.5623C2.29175 18.7609 2.22682 18.9252 2.09696 19.055C1.9671 19.1849 1.80286 19.2498 1.60425 19.2498C1.40564 19.2498 1.2414 19.1849 1.11154 19.055C0.981679 18.9252 0.916748 18.7609 0.916748 18.5623V14.4373C0.916748 14.2387 0.981679 14.0745 1.11154 13.9446C1.2414 13.8148 1.40564 13.7498 1.60425 13.7498H5.72925C5.92786 13.7498 6.09209 13.8148 6.22196 13.9446C6.35182 14.0745 6.41675 14.2387 6.41675 14.4373C6.41675 14.6359 6.35182 14.8002 6.22196 14.93C6.09209 15.0599 5.92786 15.1248 5.72925 15.1248H3.27716C4.05633 16.3012 5.16779 17.3592 6.61154 18.2988C8.05529 19.2384 9.51814 19.7082 11.0001 19.7082C13.2917 19.7082 15.2664 18.9366 16.924 17.3936C18.5817 15.8505 19.5022 13.9561 19.6855 11.7103C19.7008 11.5116 19.7733 11.3436 19.9032 11.2061C20.0331 11.0686 20.1973 10.9998 20.3959 10.9998C20.5792 10.9998 20.7397 11.0648 20.8772 11.1946C21.0147 11.3245 21.0758 11.4811 21.0605 11.6644C20.9688 12.9783 20.6442 14.2082 20.0865 15.354C19.5289 16.4998 18.7994 17.4967 17.898 18.3446C16.9966 19.1925 15.9539 19.8609 14.7699 20.3498C13.5858 20.8387 12.3292 21.0832 11.0001 21.0832ZM11.0001 2.2915C8.70841 2.2915 6.73376 3.06303 5.07612 4.60609C3.41848 6.14914 2.498 8.04359 2.31466 10.2894C2.29939 10.488 2.22682 10.6561 2.09696 10.7936C1.9671 10.9311 1.80286 10.9998 1.60425 10.9998C1.42091 10.9998 1.2605 10.9349 1.123 10.805C0.985498 10.6752 0.924387 10.5186 0.939665 10.3353C1.03133 9.02136 1.35598 7.7915 1.91362 6.64567C2.47126 5.49984 3.20078 4.50296 4.10216 3.65505C5.00355 2.80713 6.04626 2.13873 7.23029 1.64984C8.41432 1.16095 9.67091 0.916504 11.0001 0.916504C12.7112 0.916504 14.3612 1.42067 15.9501 2.429C17.539 3.43734 18.7917 4.59081 19.7084 5.88942V3.43734C19.7084 3.23873 19.7733 3.07449 19.9032 2.94463C20.0331 2.81477 20.1973 2.74984 20.3959 2.74984C20.5945 2.74984 20.7588 2.81477 20.8886 2.94463C21.0185 3.07449 21.0834 3.23873 21.0834 3.43734V7.56234C21.0834 7.76095 21.0185 7.92518 20.8886 8.05505C20.7588 8.18491 20.5945 8.24984 20.3959 8.24984H16.2709C16.0723 8.24984 15.9081 8.18491 15.7782 8.05505C15.6483 7.92518 15.5834 7.76095 15.5834 7.56234C15.5834 7.36373 15.6483 7.19949 15.7782 7.06963C15.9081 6.93977 16.0723 6.87484 16.2709 6.87484H18.723C17.9438 5.69845 16.8362 4.64046 15.4001 3.70088C13.964 2.7613 12.4973 2.2915 11.0001 2.2915Z" fill="#25C660"/>
</g>
<defs>
<clipPath id="clip0_21_3087">
<rect width="22" height="22" fill="white"/>
</clipPath>
</defs>
</svg>
