<svg width="22" height="22" viewBox="0 0 22 22" fill="none" xmlns="http://www.w3.org/2000/svg">
<path d="M7.23404 2.66597C7.23404 2.57851 7.25127 2.49191 7.28473 2.41111C7.3182 2.33031 7.36725 2.2569 7.42909 2.19506C7.49093 2.13322 7.56435 2.08416 7.64514 2.05069C7.72594 2.01723 7.81254 2 7.9 2H19.334C19.5033 1.99957 19.6664 2.06377 19.7899 2.1795C19.9134 2.29524 19.9881 2.45376 19.9987 2.6227C20.0093 2.79165 19.955 2.95826 19.8469 3.08851C19.7388 3.21876 19.585 3.30283 19.417 3.32354V6.84023C19.3894 6.83857 19.362 6.83603 19.334 6.83603H7.90002C7.87201 6.83603 7.84462 6.83857 7.81702 6.84023V3.32354C7.65639 3.30384 7.50849 3.22614 7.40113 3.10504C7.29378 2.98395 7.23435 2.8278 7.23404 2.66597ZM19.334 7.556H7.9C7.876 7.556 7.852 7.558 7.828 7.56C8.872 8.858 10.098 10.72 10.19 12.392H19.334C19.362 12.392 19.39 12.394 19.418 12.396V8.88C19.5859 8.85897 19.7395 8.77469 19.8474 8.64433C19.9553 8.51398 20.0094 8.34737 19.9987 8.17849C19.988 8.00961 19.9132 7.85118 19.7897 7.73551C19.6662 7.61984 19.5032 7.55564 19.334 7.556ZM20 13.778C20 13.6905 19.9828 13.6039 19.9494 13.5231C19.9159 13.4423 19.8668 13.3689 19.805 13.307C19.7431 13.2452 19.6697 13.1961 19.5889 13.1626C19.5081 13.1292 19.4215 13.112 19.334 13.112H10.166C10.0825 13.8413 9.82587 14.54 9.41742 15.1499C9.00896 15.7598 8.46057 16.2632 7.818 16.618V18.676C7.64986 18.6965 7.4959 18.7804 7.38759 18.9107C7.27928 19.0409 7.22479 19.2076 7.23526 19.3766C7.24573 19.5457 7.32037 19.7044 7.44392 19.8202C7.56748 19.9361 7.73062 20.0004 7.9 20H19.334C19.5032 20.0004 19.6662 19.9362 19.7897 19.8205C19.9132 19.7048 19.9879 19.5464 19.9987 19.3775C20.0094 19.2086 19.9553 19.042 19.8474 18.9117C19.7395 18.7813 19.5859 18.697 19.418 18.676V14.436C19.5785 14.4161 19.7263 14.3383 19.8335 14.2171C19.9406 14.0959 19.9999 13.9398 20 13.778ZM2 12.5929C2 10.3433 5.02532 7.09395 5.5278 6.64887C5.54715 6.63156 5.57221 6.62198 5.59819 6.62198C5.62416 6.62198 5.64921 6.63156 5.66857 6.64887C6.17105 7.09383 9.19637 10.3433 9.19637 12.5951C9.19511 13.5488 8.81531 14.463 8.14041 15.1368C7.46551 15.8106 6.55073 16.1889 5.59706 16.1886C4.64339 16.1883 3.72884 15.8094 3.05437 15.1352C2.37989 14.4609 2.00066 13.5465 2 12.5929ZM2.83662 13.0491C2.93209 13.6261 3.20575 14.1588 3.61922 14.5723C4.03269 14.9859 4.56525 15.2598 5.1422 15.3554C5.19842 15.3644 5.25594 15.3612 5.31077 15.3458C5.3656 15.3305 5.41644 15.3034 5.45978 15.2664C5.50312 15.2295 5.53792 15.1836 5.56177 15.1319C5.58562 15.0802 5.59795 15.0239 5.59792 14.9669C5.59892 14.8717 5.56627 14.7792 5.50574 14.7057C5.4452 14.6321 5.36066 14.5824 5.26701 14.5651C4.85702 14.4959 4.47877 14.3007 4.18484 14.0066C3.89091 13.7125 3.69592 13.3342 3.62697 12.9241C3.60972 12.8305 3.55992 12.7459 3.48637 12.6853C3.41282 12.6248 3.32024 12.5922 3.22499 12.5933C3.16805 12.5933 3.1118 12.6057 3.06011 12.6295C3.00842 12.6534 2.96253 12.6882 2.9256 12.7316C2.88868 12.7749 2.8616 12.8258 2.84624 12.8806C2.83087 12.9354 2.82759 12.9929 2.83662 13.0491Z" fill="#25C660"/>
</svg>
