<svg width="22" height="13" viewBox="0 0 22 13" fill="none" xmlns="http://www.w3.org/2000/svg">
<path d="M9.75771 12.9999H0.827196C0.451172 12.9999 0.209711 12.6004 0.384491 12.2675L2.55762 8.12795C2.644 7.96341 2.8145 7.86035 3.00033 7.86035H7.58456C7.77038 7.86035 7.94088 7.96341 8.02726 8.12794L10.2004 12.2675C10.3752 12.6004 10.1337 12.9999 9.75771 12.9999Z" fill="#25C660"/>
<path d="M21.1727 12.9999H12.2422C11.8662 12.9999 11.6247 12.6004 11.7995 12.2675L13.9727 8.12795C14.059 7.96341 14.2295 7.86035 14.4154 7.86035H18.9996C19.1854 7.86035 19.3559 7.96341 19.4423 8.12794L21.6154 12.2675C21.7902 12.6004 21.5488 12.9999 21.1727 12.9999Z" fill="#25C660"/>
<path d="M15.3615 5.13954H6.43096C6.05493 5.13954 5.81347 4.74006 5.98825 4.40713L8.16138 0.267594C8.24776 0.103059 8.41826 0 8.60409 0H13.1883C13.3741 0 13.5446 0.103058 13.631 0.267592L15.8042 4.40713C15.979 4.74006 15.7375 5.13954 15.3615 5.13954Z" fill="#25C660"/>
</svg>
