<svg width="22" height="22" viewBox="0 0 22 22" fill="none" xmlns="http://www.w3.org/2000/svg">
<path d="M9.16266 19.25C8.96672 19.25 8.80382 19.1841 8.67396 19.0523C8.5441 18.9206 8.47917 18.7573 8.47917 18.5625V17.1875H6.1875C5.99271 17.1875 5.82943 17.1212 5.69766 16.9887C5.56589 16.8561 5.5 16.6919 5.5 16.496C5.5 16.3001 5.56589 16.1372 5.69766 16.0073C5.82943 15.8774 5.99271 15.8125 6.1875 15.8125H7.5625V6.1875H6.1875C5.99271 6.1875 5.82943 6.12123 5.69766 5.9887C5.56589 5.85615 5.5 5.69191 5.5 5.49599C5.5 5.30005 5.56589 5.13715 5.69766 5.00729C5.82943 4.87743 5.99271 4.8125 6.1875 4.8125H8.47917V3.4375C8.47917 3.24271 8.54543 3.07943 8.67797 2.94766C8.81052 2.81589 8.97475 2.75 9.17068 2.75C9.36661 2.75 9.52951 2.81589 9.65938 2.94766C9.78924 3.07943 9.85417 3.24271 9.85417 3.4375V4.8125H12.375V3.4375C12.375 3.24271 12.4413 3.07943 12.5738 2.94766C12.7064 2.81589 12.8706 2.75 13.0665 2.75C13.2624 2.75 13.4253 2.81589 13.5552 2.94766C13.6851 3.07943 13.75 3.24271 13.75 3.4375V4.88125C14.575 5.04931 15.2396 5.45417 15.7438 6.09583C16.2479 6.7375 16.5 7.45556 16.5 8.25C16.5 8.67778 16.416 9.10174 16.2479 9.52188C16.0799 9.94201 15.8354 10.3201 15.5146 10.6562C16.1104 10.9618 16.5764 11.3934 16.9125 11.951C17.2486 12.5087 17.4167 13.1083 17.4167 13.75C17.4167 14.7125 17.0844 15.526 16.4198 16.1906C15.7552 16.8552 14.9417 17.1875 13.9792 17.1875H13.75V18.5625C13.75 18.7573 13.6837 18.9206 13.5512 19.0523C13.4186 19.1841 13.2544 19.25 13.0585 19.25C12.8626 19.25 12.6997 19.1841 12.5698 19.0523C12.4399 18.9206 12.375 18.7573 12.375 18.5625V17.1875H9.85417V18.5625C9.85417 18.7573 9.7879 18.9206 9.65536 19.0523C9.52281 19.1841 9.35858 19.25 9.16266 19.25ZM8.9375 10.3125H13.0625C13.6431 10.3125 14.1319 10.1105 14.5292 9.70663C14.9264 9.30273 15.125 8.81719 15.125 8.25C15.125 7.66944 14.9264 7.18056 14.5292 6.78333C14.1319 6.38611 13.6431 6.1875 13.0625 6.1875H8.9375V10.3125ZM8.9375 15.8125H13.9792C14.5597 15.8125 15.0486 15.6105 15.4458 15.2066C15.8431 14.8027 16.0417 14.3172 16.0417 13.75C16.0417 13.1694 15.8431 12.6806 15.4458 12.2833C15.0486 11.8861 14.5597 11.6875 13.9792 11.6875H8.9375V15.8125Z" fill="#25C660"/>
</svg>
