<svg width="30" height="30" viewBox="0 0 30 30" fill="none" xmlns="http://www.w3.org/2000/svg">
<path d="M6.875 27.5C6.35938 27.5 5.91797 27.3164 5.55078 26.9492C5.18359 26.582 5 26.1406 5 25.625V12.0625C5 11.5469 5.18359 11.1055 5.55078 10.7383C5.91797 10.3711 6.35938 10.1875 6.875 10.1875H9.0625V7.1875C9.0625 5.54479 9.64173 4.14453 10.8002 2.98672C11.9586 1.82891 13.3597 1.25 15.0033 1.25C16.6469 1.25 18.0469 1.82891 19.2031 2.98672C20.3594 4.14453 20.9375 5.54479 20.9375 7.1875V10.1875H23.125C23.6406 10.1875 24.082 10.3711 24.4492 10.7383C24.8164 11.1055 25 11.5469 25 12.0625V25.625C25 26.1406 24.8164 26.582 24.4492 26.9492C24.082 27.3164 23.6406 27.5 23.125 27.5H6.875ZM15.0052 21.25C15.6684 21.25 16.2344 21.0205 16.7031 20.5615C17.1719 20.1026 17.4062 19.5508 17.4062 18.9062C17.4062 18.2812 17.1701 17.7135 16.6979 17.2031C16.2256 16.6927 15.6579 16.4375 14.9948 16.4375C14.3316 16.4375 13.7656 16.6927 13.2969 17.2031C12.8281 17.7135 12.5938 18.2865 12.5938 18.9219C12.5938 19.5573 12.8299 20.1042 13.3021 20.5625C13.7744 21.0208 14.3421 21.25 15.0052 21.25ZM10.9375 10.1875H19.0625V7.1875C19.0625 6.05902 18.6679 5.09982 17.8787 4.30991C17.0895 3.51997 16.1311 3.125 15.0037 3.125C13.8762 3.125 12.9167 3.51997 12.125 4.30991C11.3333 5.09982 10.9375 6.05902 10.9375 7.1875V10.1875Z" fill="#25C660"/>
</svg>
