<svg width="26" height="26" viewBox="0 0 26 26" fill="none" xmlns="http://www.w3.org/2000/svg">
<path d="M5.20001 23.8334C4.9698 23.8334 4.77684 23.7551 4.62111 23.5985C4.46538 23.4418 4.38751 23.2477 4.38751 23.0162C4.38751 22.7846 4.46538 22.5921 4.62111 22.4386C4.77684 22.2852 4.9698 22.2084 5.20001 22.2084H20.8C21.0302 22.2084 21.2232 22.2867 21.3789 22.4434C21.5346 22.6 21.6125 22.7941 21.6125 23.0257C21.6125 23.2572 21.5346 23.4497 21.3789 23.6032C21.2232 23.7567 21.0302 23.8334 20.8 23.8334H5.20001ZM5.20001 3.79175C4.9698 3.79175 4.77684 3.71343 4.62111 3.5568C4.46538 3.40015 4.38751 3.20605 4.38751 2.97451C4.38751 2.74295 4.46538 2.55043 4.62111 2.39696C4.77684 2.24348 4.9698 2.16675 5.20001 2.16675H20.8C21.0302 2.16675 21.2232 2.24506 21.3789 2.4017C21.5346 2.55835 21.6125 2.75244 21.6125 2.98399C21.6125 3.21555 21.5346 3.40807 21.3789 3.56154C21.2232 3.71501 21.0302 3.79175 20.8 3.79175H5.20001ZM13.0506 21.0709C12.9446 21.0709 12.8465 21.0529 12.7563 21.0167C12.666 20.9806 12.5757 20.9174 12.4854 20.8272L9.50626 17.848C9.36182 17.7036 9.2896 17.5158 9.2896 17.2847C9.2896 17.0536 9.37278 16.8513 9.53914 16.678C9.69166 16.5191 9.88229 16.4397 10.111 16.4397C10.3398 16.4397 10.5354 16.5209 10.6979 16.6834L12.2417 18.2542V7.74591L10.6708 9.31675C10.5264 9.46119 10.3426 9.53341 10.1193 9.53341C9.8961 9.53341 9.70077 9.45216 9.53335 9.28966C9.37085 9.12716 9.2896 8.93307 9.2896 8.70737C9.2896 8.48168 9.37085 8.28758 9.53335 8.12508L12.4854 5.173C12.5757 5.08272 12.6672 5.01953 12.7599 4.98341C12.8526 4.9473 12.9519 4.92925 13.0578 4.92925C13.1637 4.92925 13.2618 4.9473 13.3521 4.98341C13.4424 5.01953 13.5327 5.08272 13.6229 5.173L16.6021 8.15216C16.7465 8.29661 16.8233 8.48168 16.8323 8.70737C16.8413 8.93307 16.7627 9.13069 16.5963 9.30025C16.4438 9.45569 16.2532 9.53341 16.0244 9.53341C15.7956 9.53341 15.6 9.45216 15.4375 9.28966L13.8667 7.74591V18.2542L15.4375 16.6834C15.582 16.539 15.7715 16.4622 16.0063 16.4532C16.241 16.4442 16.4396 16.5209 16.6021 16.6834C16.7646 16.8459 16.8458 17.04 16.8458 17.2657C16.8458 17.4914 16.7646 17.6855 16.6021 17.848L13.6229 20.8272C13.5327 20.9174 13.4412 20.9806 13.3485 21.0167C13.2558 21.0529 13.1565 21.0709 13.0506 21.0709Z" fill="#25C660"/>
</svg>
