<svg width="30" height="30" viewBox="0 0 30 30" fill="none" xmlns="http://www.w3.org/2000/svg">
<path d="M14.6562 27.5C14.3641 27.5 14.1191 27.3996 13.9215 27.1988C13.7238 26.998 13.625 26.7491 13.625 26.4523C13.625 26.1554 13.7238 25.9086 13.9215 25.7118C14.1191 25.515 14.3641 25.4167 14.6562 25.4167H25.3125V14.8611C25.3125 13.5185 25.026 12.228 24.4531 10.9896C23.8802 9.75116 23.1125 8.65741 22.15 7.70833C21.1875 6.75926 20.0875 6.00116 18.85 5.43403C17.6125 4.8669 16.3292 4.58333 15 4.58333C13.6708 4.58333 12.3875 4.8669 11.15 5.43403C9.9125 6.00116 8.8125 6.75926 7.85 7.70833C6.8875 8.65741 6.11979 9.75116 5.54688 10.9896C4.97396 12.228 4.6875 13.5185 4.6875 14.8611V22.6389C4.6875 22.8356 4.62161 23.0006 4.48984 23.1337C4.35807 23.2668 4.19479 23.3333 4 23.3333C3.24375 23.3333 2.59635 23.0613 2.05781 22.5174C1.51927 21.9734 1.25 21.3194 1.25 20.5556V17.7778C1.25 17.2454 1.37604 16.7766 1.62813 16.3715C1.88021 15.9664 2.2125 15.6366 2.625 15.3819L2.72812 13.5417C2.93438 11.8519 3.4099 10.3241 4.15469 8.95833C4.89948 7.59259 5.8276 6.43519 6.93906 5.48611C8.05052 4.53704 9.29948 3.80208 10.6859 3.28125C12.0724 2.76042 13.5104 2.5 15 2.5C16.5125 2.5 17.962 2.76042 19.3484 3.28125C20.7349 3.80208 21.9781 4.54282 23.0781 5.50347C24.1781 6.46412 25.1005 7.62153 25.8453 8.97569C26.5901 10.3299 27.0656 11.8403 27.2719 13.5069L27.375 15.3125C27.7875 15.5208 28.1198 15.8275 28.3719 16.2326C28.624 16.6377 28.75 17.0833 28.75 17.5694V20.7639C28.75 21.2731 28.624 21.7245 28.3719 22.1181C28.1198 22.5116 27.7875 22.8125 27.375 23.0208V25.4167C27.375 25.9896 27.173 26.48 26.7691 26.888C26.3652 27.296 25.8797 27.5 25.3125 27.5H14.6562ZM10.875 17.4306C10.6 17.4306 10.3594 17.3264 10.1531 17.1181C9.94688 16.9097 9.84375 16.6609 9.84375 16.3715C9.84375 16.0822 9.94688 15.8391 10.1531 15.6424C10.3594 15.4456 10.6057 15.3472 10.8922 15.3472C11.1786 15.3472 11.4193 15.447 11.6141 15.6467C11.8089 15.8464 11.9062 16.0938 11.9062 16.3889C11.9062 16.6667 11.8074 16.9097 11.6098 17.1181C11.4121 17.3264 11.1672 17.4306 10.875 17.4306ZM19.125 17.4306C18.85 17.4306 18.6094 17.3264 18.4031 17.1181C18.1969 16.9097 18.0938 16.6609 18.0938 16.3715C18.0938 16.0822 18.1969 15.8391 18.4031 15.6424C18.6094 15.4456 18.8557 15.3472 19.1422 15.3472C19.4286 15.3472 19.6693 15.447 19.8641 15.6467C20.0589 15.8464 20.1562 16.0938 20.1562 16.3889C20.1562 16.6667 20.0574 16.9097 19.8598 17.1181C19.6621 17.3264 19.4172 17.4306 19.125 17.4306ZM6.78438 15.625C6.69271 14.2593 6.88177 13.0208 7.35156 11.9097C7.82135 10.7986 8.45156 9.85532 9.24219 9.07986C10.0328 8.3044 10.9438 7.70833 11.975 7.29167C13.0063 6.875 14.0375 6.66667 15.0688 6.66667C17.1542 6.66667 18.9073 7.33218 20.3281 8.66319C21.749 9.99421 22.6198 11.6551 22.9406 13.6458C20.7865 13.6227 18.8901 13.0382 17.2516 11.8924C15.613 10.7465 14.3469 9.25926 13.4531 7.43056C13.0865 9.30556 12.313 10.9664 11.1328 12.4132C9.9526 13.86 8.50313 14.9306 6.78438 15.625Z" fill="#25C660"/>
</svg>
