<svg width="26" height="26" viewBox="0 0 26 26" fill="none" xmlns="http://www.w3.org/2000/svg">
<path d="M12.3031 15.7934L4.062 14.8424C3.67822 14.8028 3.42573 14.5997 3.30454 14.2332C3.18334 13.8667 3.26414 13.5546 3.54692 13.2971L16.8782 1.29127C16.959 1.23184 17.0448 1.18231 17.1357 1.14269C17.2266 1.10306 17.363 1.08325 17.5447 1.08325C17.8477 1.08325 18.08 1.20707 18.2416 1.45472C18.4032 1.70236 18.4032 1.95496 18.2416 2.21251L13.6969 10.2065L21.938 11.1574C22.3218 11.1971 22.5743 11.4001 22.6955 11.7666C22.8167 12.1332 22.7359 12.4452 22.4531 12.7027L9.12182 24.7086C9.04102 24.768 8.95517 24.8175 8.86428 24.8572C8.77338 24.8968 8.63704 24.9166 8.45525 24.9166C8.15227 24.9166 7.91998 24.7928 7.75839 24.5451C7.5968 24.2975 7.5968 24.0449 7.75839 23.7873L12.3031 15.7934Z" fill="#25C660"/>
</svg>
