<svg width="30" height="30" viewBox="0 0 30 30" fill="none" xmlns="http://www.w3.org/2000/svg">
<path d="M4.80469 27.5C4.50586 27.5 4.25537 27.3996 4.05322 27.1988C3.85107 26.998 3.75 26.7491 3.75 26.4523C3.75 26.1554 3.85107 25.9086 4.05322 25.7118C4.25537 25.515 4.50586 25.4167 4.80469 25.4167H25.1953C25.4941 25.4167 25.7446 25.5171 25.9468 25.7179C26.1489 25.9187 26.25 26.1676 26.25 26.4644C26.25 26.7613 26.1489 27.0081 25.9468 27.2049C25.7446 27.4016 25.4941 27.5 25.1953 27.5H4.80469ZM14.9953 22.9167C14.8578 22.9167 14.7305 22.8935 14.6133 22.8472C14.4961 22.8009 14.3789 22.7199 14.2617 22.6042L8.91797 17.3264C8.73047 17.1412 8.63672 16.9005 8.63672 16.6042C8.63672 16.3079 8.74677 16.0486 8.96687 15.8264C9.16864 15.6227 9.41602 15.5208 9.70898 15.5208C10.002 15.5208 10.2539 15.625 10.4648 15.8333L13.9453 19.3056V3.54167C13.9453 3.24653 14.047 2.99913 14.2503 2.79948C14.4536 2.59983 14.7056 2.5 15.0062 2.5C15.3067 2.5 15.5566 2.59983 15.7559 2.79948C15.9551 2.99913 16.0547 3.24653 16.0547 3.54167V19.3056L19.4297 15.9722C19.6275 15.787 19.8704 15.6944 20.1582 15.6944C20.4459 15.6944 20.6953 15.7986 20.9062 16.0069C21.1172 16.2153 21.2227 16.4641 21.2227 16.7535C21.2227 17.0428 21.1172 17.2917 20.9062 17.5L15.7383 22.6042C15.6211 22.7199 15.5023 22.8009 15.382 22.8472C15.2617 22.8935 15.1328 22.9167 14.9953 22.9167Z" fill="#25C660"/>
</svg>
