<svg width="30" height="30" viewBox="0 0 30 30" fill="none" xmlns="http://www.w3.org/2000/svg">
<path d="M17.5625 9.65625C17.25 9.21875 16.8646 8.88021 16.4062 8.64062C15.9479 8.40104 15.4271 8.28125 14.8438 8.28125C14.1979 8.28125 13.625 8.39062 13.125 8.60938C12.625 8.82812 12.1979 9.14583 11.8438 9.5625L10.5312 8.25C10.9688 7.75 11.474 7.35417 12.0469 7.0625C12.6198 6.77083 13.2292 6.58333 13.875 6.5V4.6875C13.875 4.41667 13.9635 4.19271 14.1406 4.01562C14.3177 3.83854 14.5417 3.75 14.8125 3.75C15.0833 3.75 15.3073 3.83854 15.4844 4.01562C15.6615 4.19271 15.75 4.41667 15.75 4.6875V6.46875C16.4792 6.55208 17.1615 6.78646 17.7969 7.17188C18.4323 7.55729 18.9688 8.11458 19.4062 8.84375C19.5521 9.07292 19.5781 9.3125 19.4844 9.5625C19.3906 9.8125 19.2083 10 18.9375 10.125C18.7083 10.2292 18.4635 10.2344 18.2031 10.1406C17.9427 10.0469 17.7292 9.88542 17.5625 9.65625ZM24.5312 27.5625L19.1875 22.25C18.7292 22.6875 18.2031 23.0104 17.6094 23.2188C17.0156 23.4271 16.3958 23.5521 15.75 23.5938V25.3125C15.75 25.5833 15.6615 25.8073 15.4844 25.9844C15.3073 26.1615 15.0833 26.25 14.8125 26.25C14.5417 26.25 14.3177 26.1615 14.1406 25.9844C13.9635 25.8073 13.875 25.5833 13.875 25.3125V23.5625C12.8542 23.4167 11.9792 23.0417 11.25 22.4375C10.5208 21.8333 9.95833 21.0938 9.5625 20.2188C9.45833 19.9896 9.46354 19.7448 9.57812 19.4844C9.69271 19.224 9.88542 19.0417 10.1562 18.9375C10.4062 18.8542 10.651 18.875 10.8906 19C11.1302 19.125 11.3125 19.3125 11.4375 19.5625C11.7917 20.3125 12.2656 20.8698 12.8594 21.2344C13.4531 21.599 14.1667 21.7812 15 21.7812C15.5417 21.7812 16.0677 21.7135 16.5781 21.5781C17.0885 21.4427 17.5 21.2083 17.8125 20.875L2.4375 5.5C2.25 5.3125 2.15625 5.08854 2.15625 4.82812C2.15625 4.56771 2.25 4.34375 2.4375 4.15625C2.625 3.96875 2.84896 3.875 3.10938 3.875C3.36979 3.875 3.59375 3.96875 3.78125 4.15625L25.875 26.25C25.9792 26.3333 26.0521 26.4323 26.0938 26.5469C26.1354 26.6615 26.1562 26.7812 26.1562 26.9062C26.1562 27.0312 26.1354 27.1458 26.0938 27.25C26.0521 27.3542 25.9792 27.4583 25.875 27.5625C25.6875 27.75 25.4635 27.8438 25.2031 27.8438C24.9427 27.8438 24.7188 27.75 24.5312 27.5625Z" fill="#25C660"/>
</svg>
