<svg width="30" height="30" viewBox="0 0 30 30" fill="none" xmlns="http://www.w3.org/2000/svg">
<path d="M10.375 27.3751L8.4375 24.0626L4.5625 23.2814C4.33333 23.2397 4.14063 23.1147 3.98438 22.9064C3.82813 22.698 3.77083 22.4793 3.8125 22.2501L4.25 18.5001L1.78125 15.6251C1.61458 15.4584 1.53125 15.2501 1.53125 15.0001C1.53125 14.7501 1.61458 14.5418 1.78125 14.3751L4.25 11.5314L3.8125 7.78137C3.77083 7.5522 3.82813 7.33345 3.98438 7.12512C4.14063 6.91678 4.33333 6.79178 4.5625 6.75012L8.4375 5.96887L10.375 2.62511C10.5 2.41678 10.6771 2.27095 10.9063 2.18761C11.1354 2.10428 11.3646 2.1147 11.5938 2.21886L15 3.81262L18.4063 2.21886C18.6354 2.1147 18.8646 2.09907 19.0938 2.17199C19.3229 2.24491 19.5 2.38553 19.625 2.59386L21.5938 5.96887L25.4375 6.75012C25.6667 6.79178 25.8594 6.91678 26.0156 7.12512C26.1719 7.33345 26.2292 7.5522 26.1875 7.78137L25.75 11.5314L28.2188 14.3751C28.3854 14.5418 28.4688 14.7501 28.4688 15.0001C28.4688 15.2501 28.3854 15.4584 28.2188 15.6251L25.75 18.5001L26.1875 22.2501C26.2292 22.4793 26.1719 22.698 26.0156 22.9064C25.8594 23.1147 25.6667 23.2397 25.4375 23.2814L21.5938 24.0626L19.625 27.4064C19.5 27.6147 19.3229 27.7553 19.0938 27.8282C18.8646 27.9012 18.6354 27.8855 18.4063 27.7814L15 26.1876L11.5938 27.7814C11.3646 27.8855 11.1354 27.896 10.9063 27.8126C10.6771 27.7293 10.5 27.5835 10.375 27.3751ZM13.6563 16.4689L11.375 14.0939C11.1875 13.8855 10.9583 13.7814 10.6875 13.7814C10.4167 13.7814 10.1771 13.8751 9.96875 14.0626C9.76042 14.2709 9.65625 14.5105 9.65625 14.7814C9.65625 15.0522 9.76042 15.2918 9.96875 15.5001L13 18.5001C13.1875 18.6876 13.4063 18.7814 13.6563 18.7814C13.9063 18.7814 14.125 18.6876 14.3125 18.5001L20.0313 12.8126C20.2188 12.6251 20.3125 12.3959 20.3125 12.1251C20.3125 11.8543 20.2083 11.6251 20 11.4376C19.8125 11.2709 19.5885 11.1928 19.3281 11.2032C19.0677 11.2137 18.8542 11.3022 18.6875 11.4689L13.6563 16.4689Z" fill="#25C660"/>
</svg>
