<svg width="60" height="60" viewBox="0 0 60 60" fill="none" xmlns="http://www.w3.org/2000/svg">
<circle cx="30" cy="30" r="30" fill="#E5F7F2"/>
<path d="M30.605 28.6988V19.0426C33.1675 19.2092 35.3602 20.2248 37.1831 22.0894C39.006 23.954 40.0321 26.1571 40.2612 28.6988H30.605ZM28.73 40.2301C26.0008 40.0009 23.7039 38.8655 21.8394 36.8238C19.9748 34.7821 19.0425 32.3863 19.0425 29.6363C19.0425 26.8863 19.9748 24.4905 21.8394 22.4488C23.7039 20.4071 26.0008 19.2717 28.73 19.0426V40.2301ZM30.605 40.2301V30.5738H40.2612C40.0321 33.1155 39.006 35.3186 37.1831 37.1832C35.3602 39.0478 33.1675 40.0634 30.605 40.2301Z" fill="#25C660"/>
</svg>
