<svg width="60" height="60" fill="none" xmlns="http://www.w3.org/2000/svg"><circle cx="30" cy="30" r="30" fill="#E5F7F2"/><path d="M19.805 42.5c-.3 0-.55-.1-.752-.301a1.01 1.01 0 01-.303-.747.99.99 0 01.303-.74c.202-.197.453-.295.752-.295h20.39c.3 0 .55.1.752.3.202.202.303.45.303.747a.99.99 0 01-.303.74 1.036 1.036 0 01-.752.296h-20.39zm10.19-4.583a1.03 1.03 0 01-.382-.07 1.072 1.072 0 01-.351-.243l-5.344-5.278c-.188-.185-.281-.425-.281-.722 0-.296.11-.555.33-.778.202-.203.449-.305.742-.305s.545.104.756.312l3.48 3.473V18.542a1.036 1.036 0 011.06-1.042c.302 0 .552.1.75.3.2.2.3.447.3.742v15.764l3.375-3.334c.197-.185.44-.278.728-.278s.537.105.748.313c.211.208.317.457.317.746 0 .29-.106.539-.317.747l-5.168 5.104a1.056 1.056 0 01-.356.243c-.12.047-.25.07-.387.07z" fill="#25C660"/></svg>