<svg width="60" height="60" fill="none" xmlns="http://www.w3.org/2000/svg"><circle cx="30" cy="30" r="30" fill="#E5F7F2"/><path d="M21 42.5a.905.905 0 01-.668-.271.915.915 0 01-.27-.672.914.914 0 01.938-.932h18c.266 0 .488.09.668.271.18.18.27.405.27.672s-.09.49-.27.666A.914.914 0 0139 42.5H21zm0-23.125a.905.905 0 01-.668-.271.915.915 0 01-.27-.672A.914.914 0 0121 17.5h18c.266 0 .488.09.668.271.18.18.27.405.27.672s-.09.49-.27.666a.914.914 0 01-.668.266H21zm9.058 19.938a.905.905 0 01-.34-.063.953.953 0 01-.312-.219l-3.437-3.437a.88.88 0 01-.25-.65c0-.267.096-.5.288-.7a.877.877 0 01.66-.275c.263 0 .49.093.677.281l1.781 1.813V23.937l-1.813 1.813a.862.862 0 01-.636.25.94.94 0 01-.676-.281.917.917 0 01-.281-.672c0-.26.093-.485.281-.672l3.406-3.406a.939.939 0 01.317-.219.938.938 0 01.344-.063c.122 0 .235.021.34.063a.953.953 0 01.312.219l3.437 3.437c.167.167.255.38.266.64.01.261-.08.49-.272.685a.887.887 0 01-.66.269.923.923 0 01-.678-.281L31 23.937v12.125l1.813-1.812c.166-.167.385-.255.656-.266.27-.01.5.078.687.266a.917.917 0 01.282.672c0 .26-.094.484-.282.672L30.72 39.03a.939.939 0 01-.317.219.938.938 0 01-.344.063z" fill="#25C660"/></svg>