<svg width="90" height="15" viewBox="0 0 90 15" fill="none" xmlns="http://www.w3.org/2000/svg">
<path d="M34.8554 1.68457L37.6473 10.4605H37.7544L40.5519 1.68457H43.2591L39.2772 13.2354H36.1301L32.1426 1.68457H34.8554Z" fill="white"/>
<path d="M46.113 13.3989C45.5602 13.3989 45.0677 13.3031 44.6353 13.1113C44.2029 12.9158 43.8607 12.6281 43.6088 12.2484C43.3606 11.8648 43.2365 11.3873 43.2365 10.8158C43.2365 10.3345 43.3249 9.93031 43.5016 9.60319C43.6783 9.27606 43.919 9.01286 44.2235 8.81358C44.5281 8.6143 44.874 8.4639 45.2613 8.36238C45.6524 8.26086 46.0622 8.18942 46.4908 8.14806C46.9947 8.09542 47.4008 8.04654 47.7091 8.00142C48.0174 7.95254 48.2411 7.88109 48.3803 7.78709C48.5194 7.69309 48.5889 7.55397 48.5889 7.36973V7.33589C48.5889 6.97869 48.4761 6.70233 48.2505 6.5068C48.0287 6.31128 47.7128 6.21352 47.303 6.21352C46.8706 6.21352 46.5266 6.3094 46.2709 6.50116C46.0152 6.68917 45.846 6.92605 45.7633 7.21181L43.5411 7.03133C43.6539 6.50492 43.8757 6.04996 44.2066 5.66644C44.5375 5.27916 44.9643 4.98211 45.4869 4.77531C46.0133 4.56475 46.6224 4.45947 47.3143 4.45947C47.7956 4.45947 48.2562 4.51587 48.6961 4.62867C49.1398 4.74147 49.5327 4.91631 49.8749 5.15319C50.2208 5.39008 50.4934 5.69464 50.6927 6.06688C50.892 6.43536 50.9916 6.87717 50.9916 7.39229V13.2354H48.713V12.034H48.6453C48.5062 12.3048 48.3201 12.5435 48.087 12.7503C47.8538 12.9534 47.5737 13.1132 47.2466 13.2297C46.9195 13.3425 46.5416 13.3989 46.113 13.3989ZM46.801 11.7408C47.1545 11.7408 47.4666 11.6712 47.7373 11.5321C48.008 11.3892 48.2205 11.1974 48.3746 10.9568C48.5288 10.7162 48.6059 10.4436 48.6059 10.139V9.21966C48.5307 9.26854 48.4273 9.31366 48.2957 9.35503C48.1678 9.39263 48.0231 9.42835 47.8614 9.46219C47.6997 9.49227 47.538 9.52047 47.3763 9.54679C47.2146 9.56935 47.068 9.59003 46.9364 9.60883C46.6544 9.65019 46.4081 9.71599 46.1976 9.80623C45.987 9.89647 45.8234 10.0187 45.7069 10.1728C45.5903 10.3232 45.532 10.5112 45.532 10.7368C45.532 11.064 45.6505 11.314 45.8874 11.487C46.128 11.6562 46.4326 11.7408 46.801 11.7408Z" fill="white"/>
<path d="M55.2583 1.68457V13.2354H52.8556V1.68457H55.2583Z" fill="white"/>
<path d="M61.131 13.4046C60.2398 13.4046 59.4728 13.2241 58.8298 12.8631C58.1906 12.4984 57.6981 11.9833 57.3521 11.3178C57.0062 10.6485 56.8333 9.85699 56.8333 8.9433C56.8333 8.05218 57.0062 7.27009 57.3521 6.59705C57.6981 5.924 58.185 5.39948 58.8129 5.02347C59.4446 4.64747 60.1853 4.45947 61.0351 4.45947C61.6066 4.45947 62.1387 4.55159 62.6312 4.73583C63.1275 4.91631 63.56 5.18892 63.9284 5.55364C64.3007 5.91836 64.5902 6.37708 64.797 6.92981C65.0038 7.47877 65.1072 8.12174 65.1072 8.8587V9.51859H57.7921V8.02962H62.8455C62.8455 7.68369 62.7703 7.37725 62.6199 7.11029C62.4695 6.84333 62.2609 6.63465 61.9939 6.48424C61.7307 6.33008 61.4243 6.253 61.0746 6.253C60.7099 6.253 60.3865 6.3376 60.1045 6.5068C59.8262 6.67225 59.6082 6.89597 59.4502 7.17797C59.2923 7.45621 59.2115 7.76641 59.2077 8.10858V9.52423C59.2077 9.95287 59.2867 10.3232 59.4446 10.6353C59.6063 10.9474 59.8338 11.188 60.127 11.3572C60.4203 11.5264 60.7681 11.611 61.1705 11.611C61.4374 11.611 61.6818 11.5734 61.9037 11.4982C62.1255 11.423 62.3154 11.3102 62.4733 11.1598C62.6312 11.0094 62.7515 10.8252 62.8343 10.6071L65.0564 10.7538C64.9436 11.2877 64.7124 11.7539 64.3627 12.1525C64.0168 12.5473 63.5694 12.8556 63.0204 13.0775C62.4752 13.2955 61.8454 13.4046 61.131 13.4046Z" fill="white"/>
<path d="M71.283 4.57227V6.37708H66.066V4.57227H71.283ZM67.2504 2.49674H69.6531V10.5733C69.6531 10.7951 69.6869 10.9681 69.7546 11.0922C69.8223 11.2125 69.9163 11.2971 70.0366 11.346C70.1607 11.3948 70.3036 11.4193 70.4652 11.4193C70.578 11.4193 70.6908 11.4099 70.8036 11.3911C70.9164 11.3685 71.0029 11.3516 71.0631 11.3403L71.441 13.1282C71.3206 13.1658 71.1514 13.2091 70.9334 13.2579C70.7153 13.3106 70.4502 13.3425 70.1381 13.3538C69.5591 13.3764 69.0515 13.2993 68.6153 13.1226C68.1829 12.9459 67.8464 12.6714 67.6057 12.2991C67.3651 11.9269 67.2467 11.4569 67.2504 10.8891V2.49674Z" fill="white"/>
<path d="M75.3185 13.3989C74.7658 13.3989 74.2732 13.3031 73.8408 13.1113C73.4084 12.9158 73.0662 12.6281 72.8143 12.2484C72.5662 11.8648 72.4421 11.3873 72.4421 10.8158C72.4421 10.3345 72.5304 9.93031 72.7072 9.60319C72.8839 9.27606 73.1245 9.01286 73.4291 8.81358C73.7336 8.6143 74.0796 8.4639 74.4668 8.36238C74.8579 8.26086 75.2677 8.18942 75.6964 8.14806C76.2002 8.09542 76.6063 8.04654 76.9146 8.00142C77.2229 7.95254 77.4467 7.88109 77.5858 7.78709C77.7249 7.69309 77.7945 7.55397 77.7945 7.36973V7.33589C77.7945 6.97869 77.6817 6.70233 77.4561 6.5068C77.2342 6.31128 76.9184 6.21352 76.5085 6.21352C76.0761 6.21352 75.7321 6.3094 75.4764 6.50116C75.2207 6.68917 75.0515 6.92605 74.9688 7.21181L72.7466 7.03133C72.8594 6.50492 73.0813 6.04996 73.4122 5.66644C73.743 5.27916 74.1698 4.98211 74.6925 4.77531C75.2189 4.56475 75.828 4.45947 76.5198 4.45947C77.0011 4.45947 77.4617 4.51587 77.9016 4.62867C78.3453 4.74147 78.7382 4.91631 79.0804 5.15319C79.4263 5.39008 79.6989 5.69464 79.8982 6.06688C80.0975 6.43536 80.1971 6.87717 80.1971 7.39229V13.2354H77.9186V12.034H77.8509C77.7118 12.3048 77.5256 12.5435 77.2925 12.7503C77.0594 12.9534 76.7793 13.1132 76.4521 13.2297C76.125 13.3425 75.7471 13.3989 75.3185 13.3989ZM76.0066 11.7408C76.36 11.7408 76.6721 11.6712 76.9428 11.5321C77.2136 11.3892 77.426 11.1974 77.5802 10.9568C77.7343 10.7162 77.8114 10.4436 77.8114 10.139V9.21966C77.7362 9.26854 77.6328 9.31366 77.5012 9.35503C77.3734 9.39263 77.2286 9.42835 77.0669 9.46219C76.9052 9.49227 76.7435 9.52047 76.5819 9.54679C76.4202 9.56935 76.2735 9.59003 76.1419 9.60883C75.8599 9.65019 75.6137 9.71599 75.4031 9.80623C75.1925 9.89647 75.029 10.0187 74.9124 10.1728C74.7959 10.3232 74.7376 10.5112 74.7376 10.7368C74.7376 11.064 74.856 11.314 75.0929 11.487C75.3335 11.6562 75.6381 11.7408 76.0066 11.7408Z" fill="white"/>
<path d="M84.069 4.57227L85.6595 7.60097L87.2895 4.57227H89.7542L87.2444 8.90382L89.8219 13.2354H87.3684L85.6595 10.2405L83.9788 13.2354H81.4972L84.069 8.90382L81.5874 4.57227H84.069Z" fill="white"/>
<path d="M12.5983 15L0 0H3.79214L12.5808 10.4724L16.4732 6.09347L18.3267 8.29453L12.5983 15Z" fill="white"/>
<path d="M21.5309 0H25.323L20.2034 6.02396L18.3267 3.79973L21.5309 0Z" fill="white"/>
<path d="M20.1701 15L7.57178 0H11.3639L23.9622 15H20.1701Z" fill="#25C660"/>
</svg>
